<?xml version="1.0" encoding="UTF-8"?>
<svg xmlns="http://www.w3.org/2000/svg" xmlns:xlink="http://www.w3.org/1999/xlink" width="4096" height="4096" viewBox="0 0 4096 4096">
<defs>
<clipPath id="clip-0">
<path clip-rule="nonzero" d="M 716 1712 L 875 1712 L 875 1855 L 716 1855 Z M 716 1712 "/>
</clipPath>
<clipPath id="clip-1">
<path clip-rule="nonzero" d="M 751.148438 1712.140625 L 751.175781 1713.890625 C 751.222656 1720.609375 749.261719 1726.101562 748.6875 1732.699219 C 746.894531 1753.371094 746.550781 1795.171875 761.421875 1810.820312 C 766.914062 1816.609375 776.414062 1819.929688 783.671875 1822.980469 C 815.03125 1836.199219 840.875 1836.351562 874.101562 1835.980469 L 873.769531 1847 C 870.199219 1850.441406 866.324219 1850.558594 861.636719 1851.359375 C 811.121094 1859.980469 773.175781 1849.320312 732.285156 1819.539062 C 722.734375 1812.589844 717.949219 1804.921875 716.671875 1793 C 713.632812 1764.558594 733.285156 1733.019531 751.148438 1712.140625 Z M 751.148438 1712.140625 "/>
</clipPath>
<clipPath id="clip-2">
<path clip-rule="nonzero" d="M 751.148438 1712.140625 L 751.175781 1713.890625 C 751.222656 1720.609375 749.261719 1726.101562 748.6875 1732.699219 C 746.894531 1753.371094 746.550781 1795.171875 761.421875 1810.820312 C 766.914062 1816.609375 776.414062 1819.929688 783.671875 1822.980469 C 815.03125 1836.199219 840.875 1836.351562 874.101562 1835.980469 L 873.769531 1847 C 870.199219 1850.441406 866.324219 1850.558594 861.636719 1851.359375 C 811.121094 1859.980469 773.175781 1849.320312 732.285156 1819.539062 C 722.734375 1812.589844 717.949219 1804.921875 716.671875 1793 C 713.632812 1764.558594 733.285156 1733.019531 751.148438 1712.140625 "/>
</clipPath>
<linearGradient id="linear-pattern-0" gradientUnits="userSpaceOnUse" x1="-0.10112" y1="0" x2="1.252491" y2="0" gradientTransform="matrix(-4.31445, -113.559, -113.559, 4.31445, 796.725, 1851.42)">
<stop offset="0" stop-color="rgb(21.980286%, 69.171143%, 39.802551%)" stop-opacity="1"/>
<stop offset="0.0625" stop-color="rgb(21.980286%, 69.171143%, 39.802551%)" stop-opacity="1"/>
<stop offset="0.078125" stop-color="rgb(22.029114%, 69.219971%, 39.836121%)" stop-opacity="1"/>
<stop offset="0.0859375" stop-color="rgb(22.186279%, 69.380188%, 39.944458%)" stop-opacity="1"/>
<stop offset="0.0898438" stop-color="rgb(22.387695%, 69.668579%, 40.112305%)" stop-opacity="1"/>
<stop offset="0.09375" stop-color="rgb(22.477722%, 69.845581%, 40.203857%)" stop-opacity="1"/>
<stop offset="0.0976562" stop-color="rgb(22.521973%, 69.98291%, 40.301514%)" stop-opacity="1"/>
<stop offset="0.101562" stop-color="rgb(22.564697%, 70.118713%, 40.39917%)" stop-opacity="1"/>
<stop offset="0.109375" stop-color="rgb(22.546387%, 70.193481%, 40.505981%)" stop-opacity="1"/>
<stop offset="0.117188" stop-color="rgb(22.628784%, 70.375061%, 40.608215%)" stop-opacity="1"/>
<stop offset="0.125" stop-color="rgb(22.842407%, 70.593262%, 40.628052%)" stop-opacity="1"/>
<stop offset="0.132812" stop-color="rgb(23.06366%, 70.81604%, 40.733337%)" stop-opacity="1"/>
<stop offset="0.140625" stop-color="rgb(23.164368%, 71.006775%, 40.916443%)" stop-opacity="1"/>
<stop offset="0.148438" stop-color="rgb(23.191833%, 71.176147%, 41.07666%)" stop-opacity="1"/>
<stop offset="0.15625" stop-color="rgb(23.34137%, 71.376038%, 41.119385%)" stop-opacity="1"/>
<stop offset="0.164062" stop-color="rgb(23.564148%, 71.600342%, 41.18042%)" stop-opacity="1"/>
<stop offset="0.171875" stop-color="rgb(23.730469%, 71.812439%, 41.345215%)" stop-opacity="1"/>
<stop offset="0.179688" stop-color="rgb(23.768616%, 71.986389%, 41.545105%)" stop-opacity="1"/>
<stop offset="0.1875" stop-color="rgb(23.854065%, 72.175598%, 41.73584%)" stop-opacity="1"/>
<stop offset="0.195312" stop-color="rgb(24.060059%, 72.433472%, 41.906738%)" stop-opacity="1"/>
<stop offset="0.199219" stop-color="rgb(24.259949%, 72.769165%, 42.09137%)" stop-opacity="1"/>
<stop offset="0.203125" stop-color="rgb(24.353027%, 72.958374%, 42.1875%)" stop-opacity="1"/>
<stop offset="0.210938" stop-color="rgb(24.464417%, 73.080444%, 42.271423%)" stop-opacity="1"/>
<stop offset="0.21875" stop-color="rgb(24.69635%, 73.286438%, 42.428589%)" stop-opacity="1"/>
<stop offset="0.234375" stop-color="rgb(24.958801%, 73.420715%, 42.573547%)" stop-opacity="1"/>
<stop offset="0.25" stop-color="rgb(25.285339%, 73.530579%, 42.739868%)" stop-opacity="1"/>
<stop offset="0.257812" stop-color="rgb(25.602722%, 73.63739%, 42.900085%)" stop-opacity="1"/>
<stop offset="0.265625" stop-color="rgb(25.863647%, 73.724365%, 42.993164%)" stop-opacity="1"/>
<stop offset="0.273438" stop-color="rgb(26.124573%, 73.805237%, 42.993164%)" stop-opacity="1"/>
<stop offset="0.28125" stop-color="rgb(26.385498%, 73.88916%, 43.025208%)" stop-opacity="1"/>
<stop offset="0.289062" stop-color="rgb(26.646423%, 73.977661%, 43.151855%)" stop-opacity="1"/>
<stop offset="0.296875" stop-color="rgb(26.908875%, 74.066162%, 43.286133%)" stop-opacity="1"/>
<stop offset="0.304688" stop-color="rgb(27.049255%, 74.118042%, 43.44635%)" stop-opacity="1"/>
<stop offset="0.3125" stop-color="rgb(27.114868%, 74.147034%, 43.621826%)" stop-opacity="1"/>
<stop offset="0.320312" stop-color="rgb(27.2995%, 74.211121%, 43.774414%)" stop-opacity="1"/>
<stop offset="0.328125" stop-color="rgb(27.561951%, 74.29657%, 43.823242%)" stop-opacity="1"/>
<stop offset="0.335938" stop-color="rgb(27.822876%, 74.377441%, 43.817139%)" stop-opacity="1"/>
<stop offset="0.34375" stop-color="rgb(28.083801%, 74.464417%, 43.899536%)" stop-opacity="1"/>
<stop offset="0.347656" stop-color="rgb(28.463745%, 74.59259%, 44.099426%)" stop-opacity="1"/>
<stop offset="0.351562" stop-color="rgb(28.713989%, 74.67804%, 44.232178%)" stop-opacity="1"/>
<stop offset="0.355469" stop-color="rgb(28.868103%, 74.731445%, 44.352722%)" stop-opacity="1"/>
<stop offset="0.359375" stop-color="rgb(29.020691%, 74.784851%, 44.474792%)" stop-opacity="1"/>
<stop offset="0.367188" stop-color="rgb(29.020691%, 74.789429%, 44.570923%)" stop-opacity="1"/>
<stop offset="0.375" stop-color="rgb(29.139709%, 74.835205%, 44.73877%)" stop-opacity="1"/>
<stop offset="0.382812" stop-color="rgb(29.389954%, 74.919128%, 44.841003%)" stop-opacity="1"/>
<stop offset="0.390625" stop-color="rgb(29.650879%, 75.001526%, 44.845581%)" stop-opacity="1"/>
<stop offset="0.398438" stop-color="rgb(29.91333%, 75.085449%, 44.880676%)" stop-opacity="1"/>
<stop offset="0.40625" stop-color="rgb(30.174255%, 75.17395%, 45.014954%)" stop-opacity="1"/>
<stop offset="0.414062" stop-color="rgb(30.435181%, 75.262451%, 45.15686%)" stop-opacity="1"/>
<stop offset="0.421875" stop-color="rgb(30.696106%, 75.350952%, 45.298767%)" stop-opacity="1"/>
<stop offset="0.429688" stop-color="rgb(30.905151%, 75.424194%, 45.451355%)" stop-opacity="1"/>
<stop offset="0.4375" stop-color="rgb(30.981445%, 75.456238%, 45.629883%)" stop-opacity="1"/>
<stop offset="0.445312" stop-color="rgb(31.100464%, 75.502014%, 45.800781%)" stop-opacity="1"/>
<stop offset="0.453125" stop-color="rgb(31.349182%, 75.584412%, 45.907593%)" stop-opacity="1"/>
<stop offset="0.460938" stop-color="rgb(31.610107%, 75.666809%, 45.915222%)" stop-opacity="1"/>
<stop offset="0.46875" stop-color="rgb(31.872559%, 75.752258%, 45.953369%)" stop-opacity="1"/>
<stop offset="0.476562" stop-color="rgb(32.133484%, 75.840759%, 46.089172%)" stop-opacity="1"/>
<stop offset="0.484375" stop-color="rgb(32.394409%, 75.92926%, 46.235657%)" stop-opacity="1"/>
<stop offset="0.492188" stop-color="rgb(32.655334%, 76.017761%, 46.380615%)" stop-opacity="1"/>
<stop offset="0.5" stop-color="rgb(32.86438%, 76.089478%, 46.498108%)" stop-opacity="1"/>
<stop offset="0.515625" stop-color="rgb(33.059692%, 76.156616%, 46.607971%)" stop-opacity="1"/>
<stop offset="0.523438" stop-color="rgb(33.308411%, 76.24054%, 46.748352%)" stop-opacity="1"/>
<stop offset="0.53125" stop-color="rgb(33.569336%, 76.330566%, 46.896362%)" stop-opacity="1"/>
<stop offset="0.539062" stop-color="rgb(33.831787%, 76.420593%, 47.045898%)" stop-opacity="1"/>
<stop offset="0.546875" stop-color="rgb(34.092712%, 76.507568%, 47.155762%)" stop-opacity="1"/>
<stop offset="0.554688" stop-color="rgb(34.353638%, 76.589966%, 47.166443%)" stop-opacity="1"/>
<stop offset="0.5625" stop-color="rgb(34.614563%, 76.673889%, 47.207642%)" stop-opacity="1"/>
<stop offset="0.570312" stop-color="rgb(34.877014%, 76.763916%, 47.348022%)" stop-opacity="1"/>
<stop offset="0.578125" stop-color="rgb(35.137939%, 76.852417%, 47.499084%)" stop-opacity="1"/>
<stop offset="0.585938" stop-color="rgb(35.398865%, 76.937866%, 47.56012%)" stop-opacity="1"/>
<stop offset="0.59375" stop-color="rgb(35.65979%, 77.020264%, 47.563171%)" stop-opacity="1"/>
<stop offset="0.601562" stop-color="rgb(35.920715%, 77.105713%, 47.654724%)" stop-opacity="1"/>
<stop offset="0.609375" stop-color="rgb(36.183167%, 77.19574%, 47.808838%)" stop-opacity="1"/>
<stop offset="0.625" stop-color="rgb(36.392212%, 77.267456%, 47.930908%)" stop-opacity="1"/>
<stop offset="0.632812" stop-color="rgb(36.58905%, 77.336121%, 48.045349%)" stop-opacity="1"/>
<stop offset="0.640625" stop-color="rgb(36.886597%, 77.435303%, 48.182678%)" stop-opacity="1"/>
<stop offset="0.644531" stop-color="rgb(37.329102%, 77.580261%, 48.304749%)" stop-opacity="1"/>
<stop offset="0.648438" stop-color="rgb(37.590027%, 77.66571%, 48.35968%)" stop-opacity="1"/>
<stop offset="0.65625" stop-color="rgb(37.734985%, 77.714539%, 48.434448%)" stop-opacity="1"/>
<stop offset="0.671875" stop-color="rgb(37.960815%, 77.792358%, 48.558044%)" stop-opacity="1"/>
<stop offset="0.679688" stop-color="rgb(38.156128%, 77.859497%, 48.674011%)" stop-opacity="1"/>
<stop offset="0.6875" stop-color="rgb(38.40332%, 77.94342%, 48.822021%)" stop-opacity="1"/>
<stop offset="0.695312" stop-color="rgb(38.664246%, 78.033447%, 48.977661%)" stop-opacity="1"/>
<stop offset="0.703125" stop-color="rgb(38.925171%, 78.123474%, 49.134827%)" stop-opacity="1"/>
<stop offset="0.710938" stop-color="rgb(39.187622%, 78.213501%, 49.293518%)" stop-opacity="1"/>
<stop offset="0.71875" stop-color="rgb(39.448547%, 78.303528%, 49.452209%)" stop-opacity="1"/>
<stop offset="0.726562" stop-color="rgb(39.709473%, 78.388977%, 49.520874%)" stop-opacity="1"/>
<stop offset="0.734375" stop-color="rgb(39.970398%, 78.471375%, 49.528503%)" stop-opacity="1"/>
<stop offset="0.742187" stop-color="rgb(40.231323%, 78.55835%, 49.624634%)" stop-opacity="1"/>
<stop offset="0.75" stop-color="rgb(40.493774%, 78.648376%, 49.786377%)" stop-opacity="1"/>
<stop offset="0.757813" stop-color="rgb(40.7547%, 78.736877%, 49.906921%)" stop-opacity="1"/>
<stop offset="0.765625" stop-color="rgb(41.015625%, 78.819275%, 49.928284%)" stop-opacity="1"/>
<stop offset="0.773438" stop-color="rgb(41.27655%, 78.904724%, 49.975586%)" stop-opacity="1"/>
<stop offset="0.78125" stop-color="rgb(41.488647%, 78.977966%, 50.132751%)" stop-opacity="1"/>
<stop offset="0.789062" stop-color="rgb(41.569519%, 79.013062%, 50.323486%)" stop-opacity="1"/>
<stop offset="0.796875" stop-color="rgb(41.68396%, 79.058838%, 50.509644%)" stop-opacity="1"/>
<stop offset="0.804688" stop-color="rgb(41.929626%, 79.141235%, 50.636292%)" stop-opacity="1"/>
<stop offset="0.8125" stop-color="rgb(42.190552%, 79.225159%, 50.657654%)" stop-opacity="1"/>
<stop offset="0.875" stop-color="rgb(42.338562%, 79.270935%, 50.634766%)" stop-opacity="1"/>
<stop offset="1" stop-color="rgb(42.353821%, 79.275513%, 50.63324%)" stop-opacity="1"/>
</linearGradient>
<clipPath id="clip-3">
<path clip-rule="nonzero" d="M 849 2324 L 951 2324 L 951 2874 L 849 2874 Z M 849 2324 "/>
</clipPath>
<clipPath id="clip-4">
<path clip-rule="nonzero" d="M 871.539062 2330.128906 L 950.28125 2324.050781 L 927.90625 2728.898438 L 922.5625 2873.21875 L 849.980469 2872.078125 L 853.488281 2729.25 Z M 871.539062 2330.128906 "/>
</clipPath>
<clipPath id="clip-5">
<path clip-rule="nonzero" d="M 871.539062 2330.128906 L 950.28125 2324.050781 L 927.90625 2728.898438 L 922.5625 2873.21875 L 849.980469 2872.078125 L 853.488281 2729.25 L 871.539062 2330.128906 "/>
</clipPath>
<linearGradient id="linear-pattern-1" gradientUnits="userSpaceOnUse" x1="-0.00570503" y1="0" x2="1.001392" y2="0" gradientTransform="matrix(106.104, -544.03, -544.03, -106.104, 844.913, 2869.01)">
<stop offset="0" stop-color="rgb(18.72406%, 54.130554%, 34.936523%)" stop-opacity="1"/>
<stop offset="0.015625" stop-color="rgb(18.728638%, 54.257202%, 34.994507%)" stop-opacity="1"/>
<stop offset="0.0234375" stop-color="rgb(18.736267%, 54.504395%, 35.110474%)" stop-opacity="1"/>
<stop offset="0.03125" stop-color="rgb(18.746948%, 54.826355%, 35.26001%)" stop-opacity="1"/>
<stop offset="0.0390625" stop-color="rgb(18.783569%, 55.213928%, 35.449219%)" stop-opacity="1"/>
<stop offset="0.046875" stop-color="rgb(18.919373%, 55.577087%, 35.665894%)" stop-opacity="1"/>
<stop offset="0.0546875" stop-color="rgb(19.126892%, 55.92041%, 35.887146%)" stop-opacity="1"/>
<stop offset="0.0625" stop-color="rgb(19.300842%, 56.259155%, 36.029053%)" stop-opacity="1"/>
<stop offset="0.0703125" stop-color="rgb(19.438171%, 56.57959%, 36.108398%)" stop-opacity="1"/>
<stop offset="0.078125" stop-color="rgb(19.502258%, 56.834412%, 36.195374%)" stop-opacity="1"/>
<stop offset="0.0859375" stop-color="rgb(19.523621%, 57.049561%, 36.297607%)" stop-opacity="1"/>
<stop offset="0.09375" stop-color="rgb(19.616699%, 57.3349%, 36.450195%)" stop-opacity="1"/>
<stop offset="0.101562" stop-color="rgb(19.772339%, 57.687378%, 36.64093%)" stop-opacity="1"/>
<stop offset="0.109375" stop-color="rgb(19.946289%, 58.091736%, 36.808777%)" stop-opacity="1"/>
<stop offset="0.117188" stop-color="rgb(20.124817%, 58.522034%, 36.953735%)" stop-opacity="1"/>
<stop offset="0.125" stop-color="rgb(20.210266%, 58.831787%, 37.069702%)" stop-opacity="1"/>
<stop offset="0.132812" stop-color="rgb(20.228577%, 59.046936%, 37.17041%)" stop-opacity="1"/>
<stop offset="0.140625" stop-color="rgb(20.320129%, 59.335327%, 37.322998%)" stop-opacity="1"/>
<stop offset="0.148438" stop-color="rgb(20.46814%, 59.67865%, 37.513733%)" stop-opacity="1"/>
<stop offset="0.15625" stop-color="rgb(20.541382%, 59.950256%, 37.654114%)" stop-opacity="1"/>
<stop offset="0.164062" stop-color="rgb(20.558167%, 60.165405%, 37.753296%)" stop-opacity="1"/>
<stop offset="0.171875" stop-color="rgb(20.648193%, 60.453796%, 37.904358%)" stop-opacity="1"/>
<stop offset="0.179688" stop-color="rgb(20.799255%, 60.809326%, 38.101196%)" stop-opacity="1"/>
<stop offset="0.1875" stop-color="rgb(20.860291%, 61.140442%, 38.256836%)" stop-opacity="1"/>
<stop offset="0.195312" stop-color="rgb(20.846558%, 61.448669%, 38.375854%)" stop-opacity="1"/>
<stop offset="0.203125" stop-color="rgb(20.93811%, 61.732483%, 38.526917%)" stop-opacity="1"/>
<stop offset="0.210938" stop-color="rgb(21.125793%, 61.994934%, 38.702393%)" stop-opacity="1"/>
<stop offset="0.214844" stop-color="rgb(21.266174%, 62.301636%, 38.804626%)" stop-opacity="1"/>
<stop offset="0.21875" stop-color="rgb(21.313477%, 62.477112%, 38.821411%)" stop-opacity="1"/>
<stop offset="0.222656" stop-color="rgb(21.363831%, 62.651062%, 38.839722%)" stop-opacity="1"/>
<stop offset="0.226562" stop-color="rgb(21.41571%, 62.826538%, 38.856506%)" stop-opacity="1"/>
<stop offset="0.234375" stop-color="rgb(21.511841%, 62.95929%, 38.948059%)" stop-opacity="1"/>
<stop offset="0.242188" stop-color="rgb(21.70105%, 63.223267%, 39.128113%)" stop-opacity="1"/>
<stop offset="0.25" stop-color="rgb(21.768188%, 63.458252%, 39.241028%)" stop-opacity="1"/>
<stop offset="0.257812" stop-color="rgb(21.711731%, 63.66272%, 39.28833%)" stop-opacity="1"/>
<stop offset="0.265625" stop-color="rgb(21.766663%, 63.949585%, 39.352417%)" stop-opacity="1"/>
<stop offset="0.273437" stop-color="rgb(21.931458%, 64.315796%, 39.433289%)" stop-opacity="1"/>
<stop offset="0.28125" stop-color="rgb(22.007751%, 64.663696%, 39.593506%)" stop-opacity="1"/>
<stop offset="0.289062" stop-color="rgb(21.989441%, 64.988708%, 39.839172%)" stop-opacity="1"/>
<stop offset="0.296875" stop-color="rgb(22.041321%, 65.280151%, 39.971924%)" stop-opacity="1"/>
<stop offset="0.304688" stop-color="rgb(22.169495%, 65.539551%, 39.984131%)" stop-opacity="1"/>
<stop offset="0.3125" stop-color="rgb(22.30072%, 65.79895%, 40.052795%)" stop-opacity="1"/>
<stop offset="0.320312" stop-color="rgb(22.43042%, 66.062927%, 40.187073%)" stop-opacity="1"/>
<stop offset="0.328125" stop-color="rgb(22.57843%, 66.377258%, 40.298462%)" stop-opacity="1"/>
<stop offset="0.335938" stop-color="rgb(22.749329%, 66.751099%, 40.380859%)" stop-opacity="1"/>
<stop offset="0.34375" stop-color="rgb(22.903442%, 67.077637%, 40.487671%)" stop-opacity="1"/>
<stop offset="0.351562" stop-color="rgb(23.03772%, 67.349243%, 40.623474%)" stop-opacity="1"/>
<stop offset="0.355469" stop-color="rgb(23.074341%, 67.640686%, 40.791321%)" stop-opacity="1"/>
<stop offset="0.359375" stop-color="rgb(23.043823%, 67.797852%, 40.888977%)" stop-opacity="1"/>
<stop offset="0.363281" stop-color="rgb(23.002625%, 67.959595%, 40.991211%)" stop-opacity="1"/>
<stop offset="0.367187" stop-color="rgb(22.9599%, 68.119812%, 41.093445%)" stop-opacity="1"/>
<stop offset="0.371094" stop-color="rgb(23.031616%, 68.309021%, 41.143799%)" stop-opacity="1"/>
<stop offset="0.375" stop-color="rgb(23.101807%, 68.496704%, 41.192627%)" stop-opacity="1"/>
<stop offset="0.382813" stop-color="rgb(23.188782%, 68.690491%, 41.233826%)" stop-opacity="1"/>
<stop offset="0.390625" stop-color="rgb(23.345947%, 69.026184%, 41.340637%)" stop-opacity="1"/>
<stop offset="0.398438" stop-color="rgb(23.486328%, 69.30542%, 41.477966%)" stop-opacity="1"/>
<stop offset="0.40625" stop-color="rgb(23.622131%, 69.578552%, 41.619873%)" stop-opacity="1"/>
<stop offset="0.414062" stop-color="rgb(23.75946%, 69.85321%, 41.763306%)" stop-opacity="1"/>
<stop offset="0.417969" stop-color="rgb(23.884583%, 70.169067%, 41.860962%)" stop-opacity="1"/>
<stop offset="0.421875" stop-color="rgb(23.94104%, 70.347595%, 41.886902%)" stop-opacity="1"/>
<stop offset="0.425781" stop-color="rgb(23.995972%, 70.536804%, 41.903687%)" stop-opacity="1"/>
<stop offset="0.429688" stop-color="rgb(24.052429%, 70.724487%, 41.920471%)" stop-opacity="1"/>
<stop offset="0.4375" stop-color="rgb(24.052429%, 70.808411%, 41.98761%)" stop-opacity="1"/>
<stop offset="0.445312" stop-color="rgb(24.038696%, 70.947266%, 42.13562%)" stop-opacity="1"/>
<stop offset="0.449219" stop-color="rgb(24.066162%, 71.165466%, 42.300415%)" stop-opacity="1"/>
<stop offset="0.453125" stop-color="rgb(24.107361%, 71.330261%, 42.384338%)" stop-opacity="1"/>
<stop offset="0.457031" stop-color="rgb(24.163818%, 71.522522%, 42.469788%)" stop-opacity="1"/>
<stop offset="0.460938" stop-color="rgb(24.21875%, 71.714783%, 42.553711%)" stop-opacity="1"/>
<stop offset="0.46875" stop-color="rgb(24.29657%, 71.826172%, 42.62085%)" stop-opacity="1"/>
<stop offset="0.476563" stop-color="rgb(24.456787%, 72.02301%, 42.749023%)" stop-opacity="1"/>
<stop offset="0.484375" stop-color="rgb(24.613953%, 72.235107%, 42.880249%)" stop-opacity="1"/>
<stop offset="0.492188" stop-color="rgb(24.757385%, 72.502136%, 43.025208%)" stop-opacity="1"/>
<stop offset="0.496094" stop-color="rgb(24.888611%, 72.821045%, 43.130493%)" stop-opacity="1"/>
<stop offset="0.5" stop-color="rgb(24.949646%, 72.999573%, 43.164062%)" stop-opacity="1"/>
<stop offset="0.503906" stop-color="rgb(25.007629%, 73.191833%, 43.180847%)" stop-opacity="1"/>
<stop offset="0.507812" stop-color="rgb(25.065613%, 73.384094%, 43.199158%)" stop-opacity="1"/>
<stop offset="0.515625" stop-color="rgb(25.152588%, 73.46344%, 43.238831%)" stop-opacity="1"/>
<stop offset="0.53125" stop-color="rgb(25.43335%, 73.606873%, 43.377686%)" stop-opacity="1"/>
<stop offset="0.539062" stop-color="rgb(25.724792%, 73.704529%, 43.527222%)" stop-opacity="1"/>
<stop offset="0.546875" stop-color="rgb(25.985718%, 73.791504%, 43.612671%)" stop-opacity="1"/>
<stop offset="0.554687" stop-color="rgb(26.342773%, 73.905945%, 43.67981%)" stop-opacity="1"/>
<stop offset="0.5625" stop-color="rgb(26.66626%, 74.01123%, 43.753052%)" stop-opacity="1"/>
<stop offset="0.578125" stop-color="rgb(26.928711%, 74.099731%, 43.865967%)" stop-opacity="1"/>
<stop offset="0.59375" stop-color="rgb(27.182007%, 74.182129%, 43.952942%)" stop-opacity="1"/>
<stop offset="0.601562" stop-color="rgb(27.49939%, 74.284363%, 44.003296%)" stop-opacity="1"/>
<stop offset="0.609375" stop-color="rgb(27.888489%, 74.412537%, 44.108582%)" stop-opacity="1"/>
<stop offset="0.617188" stop-color="rgb(28.277588%, 74.542236%, 44.287109%)" stop-opacity="1"/>
<stop offset="0.625" stop-color="rgb(28.608704%, 74.655151%, 44.462585%)" stop-opacity="1"/>
<stop offset="0.640625" stop-color="rgb(28.938293%, 74.766541%, 44.638062%)" stop-opacity="1"/>
<stop offset="0.65625" stop-color="rgb(29.327393%, 74.899292%, 44.847107%)" stop-opacity="1"/>
<stop offset="0.664063" stop-color="rgb(29.618835%, 74.998474%, 45.002747%)" stop-opacity="1"/>
<stop offset="0.671875" stop-color="rgb(29.866028%, 75.082397%, 45.137024%)" stop-opacity="1"/>
<stop offset="0.679688" stop-color="rgb(30.210876%, 75.19989%, 45.323181%)" stop-opacity="1"/>
<stop offset="0.6875" stop-color="rgb(30.548096%, 75.314331%, 45.507812%)" stop-opacity="1"/>
<stop offset="0.695312" stop-color="rgb(30.789185%, 75.396729%, 45.639038%)" stop-opacity="1"/>
<stop offset="0.703125" stop-color="rgb(31.031799%, 75.476074%, 45.700073%)" stop-opacity="1"/>
<stop offset="0.710938" stop-color="rgb(31.373596%, 75.58136%, 45.669556%)" stop-opacity="1"/>
<stop offset="0.71875" stop-color="rgb(31.713867%, 75.686646%, 45.639038%)" stop-opacity="1"/>
<stop offset="0.734375" stop-color="rgb(32.055664%, 75.799561%, 45.755005%)" stop-opacity="1"/>
<stop offset="0.75" stop-color="rgb(32.444763%, 75.932312%, 45.97168%)" stop-opacity="1"/>
<stop offset="0.765625" stop-color="rgb(32.833862%, 76.063538%, 46.156311%)" stop-opacity="1"/>
<stop offset="0.78125" stop-color="rgb(33.221436%, 76.18866%, 46.228027%)" stop-opacity="1"/>
<stop offset="0.796875" stop-color="rgb(33.610535%, 76.316833%, 46.331787%)" stop-opacity="1"/>
<stop offset="0.8125" stop-color="rgb(33.999634%, 76.448059%, 46.522522%)" stop-opacity="1"/>
<stop offset="0.828125" stop-color="rgb(34.352112%, 76.5625%, 46.603394%)" stop-opacity="1"/>
<stop offset="0.84375" stop-color="rgb(34.545898%, 76.629639%, 46.742249%)" stop-opacity="1"/>
<stop offset="0.859375" stop-color="rgb(34.773254%, 76.713562%, 46.992493%)" stop-opacity="1"/>
<stop offset="0.875" stop-color="rgb(35.162354%, 76.846313%, 47.193909%)" stop-opacity="1"/>
<stop offset="0.890625" stop-color="rgb(35.551453%, 76.971436%, 47.268677%)" stop-opacity="1"/>
<stop offset="0.90625" stop-color="rgb(35.940552%, 77.098083%, 47.348022%)" stop-opacity="1"/>
<stop offset="0.921875" stop-color="rgb(36.329651%, 77.224731%, 47.425842%)" stop-opacity="1"/>
<stop offset="0.9375" stop-color="rgb(36.717224%, 77.351379%, 47.523499%)" stop-opacity="1"/>
<stop offset="0.953125" stop-color="rgb(37.106323%, 77.484131%, 47.73407%)" stop-opacity="1"/>
<stop offset="0.96875" stop-color="rgb(37.495422%, 77.609253%, 47.813416%)" stop-opacity="1"/>
<stop offset="0.984375" stop-color="rgb(37.884521%, 77.737427%, 47.911072%)" stop-opacity="1"/>
<stop offset="1" stop-color="rgb(38.25531%, 77.864075%, 48.130798%)" stop-opacity="1"/>
</linearGradient>
</defs>
<rect x="-409.6" y="-409.6" width="4915.2" height="4915.2" fill="rgb(100%, 100%, 100%)" fill-opacity="1"/>
<path fill-rule="nonzero" fill="rgb(6.266785%, 5.734253%, 5.047607%)" fill-opacity="1" d="M 1360.011719 402.820312 C 1379.269531 400.339844 1400.769531 402.320312 1420.109375 403.539062 C 1462.359375 406.199219 1506.058594 410.988281 1547 422.019531 L 1598 438.480469 L 1761.328125 484.730469 C 1957.121094 549.859375 2144.378906 649.121094 2310.960938 770.550781 C 2364.421875 809.519531 2414.449219 852.28125 2462.480469 897.761719 L 2502.351562 937.71875 C 2507.359375 942.96875 2513.378906 951.679688 2519.078125 955.761719 C 2522.601562 958.28125 2531.761719 959.519531 2535.980469 960.761719 C 2544.578125 963.300781 2553.308594 967.140625 2561.289062 971.21875 C 2621.269531 1001.890625 2659.738281 1096.980469 2665.460938 1161 C 2666.210938 1169.441406 2666.71875 1178.46875 2665.679688 1186.898438 C 2664.609375 1195.589844 2661.558594 1204.328125 2664.628906 1212.878906 L 2730.429688 1415.46875 L 2756.820312 1497.058594 C 2759.359375 1504.859375 2760.390625 1513.710938 2764.230469 1521 C 2772.789062 1537.238281 2796.121094 1551.679688 2808.738281 1565.960938 C 2846.328125 1608.550781 2880.039062 1654.421875 2905.789062 1705.230469 C 2961.648438 1815.488281 2966.378906 1949.140625 2937.941406 2068.058594 C 2930.621094 2098.640625 2919.679688 2127.421875 2909.898438 2157.179688 L 2996.898438 2174.230469 L 2998.050781 2166 C 2999.261719 2157.71875 3000.949219 2151.519531 3006.519531 2145 C 3026.261719 2121.898438 3063.429688 2122.28125 3091.390625 2119.980469 C 3091.808594 2117.128906 3080.179688 2102.339844 3078.230469 2098.578125 C 3068.859375 2080.5 3064.21875 2059.46875 3062.761719 2039.25 C 3061.628906 2023.398438 3067.039062 2002.660156 3078.230469 1991 C 3086.25 1982.640625 3098 1979.5 3109.261719 1979.160156 C 3119.300781 1978.859375 3130.390625 1982.398438 3139.820312 1985.71875 C 3178.859375 1999.460938 3204.808594 2025.28125 3234.199219 2053.121094 C 3240.339844 2049.5 3247.308594 2044.921875 3254.238281 2043.101562 C 3266.820312 2039.808594 3284.488281 2041.859375 3297.550781 2041.988281 C 3301.171875 2042.019531 3306.828125 2042.820312 3309.96875 2041 C 3313.269531 2039.089844 3321.601562 2022.949219 3324.46875 2019 C 3339.578125 1998.179688 3360.769531 1974.269531 3384.03125 1962.308594 C 3394.25 1957.058594 3412.308594 1949 3423.519531 1952.921875 L 3429.238281 1954.71875 C 3438.03125 1957.03125 3441.390625 1959.441406 3447.460938 1966.460938 C 3484.089844 2008.769531 3484.578125 2069.460938 3481.640625 2121.988281 L 3503.5 2121.878906 C 3513.601562 2122.269531 3530.121094 2123.769531 3537.160156 2131.820312 C 3546.179688 2142.128906 3541.558594 2160.421875 3541.109375 2173 C 3540.878906 2179.449219 3539.078125 2191.859375 3543.949219 2196.300781 C 3546.730469 2198.839844 3555.480469 2205.480469 3558.769531 2206.539062 C 3563.308594 2208 3573.039062 2206.75 3578.089844 2206.699219 L 3628 2206.421875 C 3647.929688 2206.621094 3672.558594 2206.28125 3687.070312 2221.980469 C 3703.980469 2240.28125 3703.199219 2262.730469 3701.851562 2286.058594 C 3700.078125 2316.640625 3694.261719 2345.628906 3670.308594 2366.539062 C 3667.46875 2369.019531 3668.210938 2367.378906 3668.210938 2371.28125 L 3669.179688 2608.179688 C 3669.089844 2640.308594 3673.488281 2676.128906 3666.78125 2707.5 C 3662.160156 2729.160156 3640.238281 2744.320312 3622.320312 2755.449219 C 3606.960938 2765 3585.121094 2772.648438 3567.351562 2775.871094 C 3539.089844 2781 3509.601562 2781.539062 3481 2783.980469 C 3378.808594 2792.699219 3278.578125 2795.410156 3176 2793.308594 C 3139.640625 2792.570312 3101.46875 2794.699219 3065.980469 2786.011719 L 3062.800781 2785.210938 C 3072.980469 2862.390625 3106.191406 2937.179688 3112.28125 3015.070312 C 3113.949219 3036.378906 3110.308594 3061.609375 3099.929688 3080.550781 C 3074.300781 3127.339844 3005.660156 3163.960938 2958.050781 3184.601562 L 2932.898438 3195.039062 C 2932.089844 3195.351562 2925.980469 3197.460938 2925.738281 3197.769531 C 2925.371094 3198.230469 2924.359375 3204.621094 2924.140625 3205.699219 C 2921.941406 3216.550781 2920.289062 3228.03125 2916.78125 3238.539062 C 2908.96875 3261.949219 2894.699219 3285.660156 2883.648438 3307.921875 C 2924.589844 3308.210938 2960.878906 3309.199219 2999.429688 3325.28125 C 3032.96875 3339.28125 3071.808594 3370.539062 3084.769531 3405.601562 C 3092.109375 3425.480469 3092.160156 3448.820312 3082.449219 3468 C 3074.859375 3482.980469 3060.78125 3493.839844 3047.339844 3503.398438 C 3015.570312 3526.019531 2977.011719 3540.488281 2940.46875 3553.320312 L 2805.921875 3596.53125 L 2693.609375 3633.730469 C 2669.480469 3572.679688 2631.800781 3515.601562 2597 3460.199219 C 2590.058594 3449.148438 2581.820312 3430.320312 2571.320312 3422.320312 C 2568.058594 3419.828125 2559.941406 3418.199219 2555.769531 3416.839844 C 2544.589844 3413.210938 2533.210938 3409.648438 2523.101562 3403.511719 C 2514.078125 3398.039062 2503.980469 3391.28125 2497.96875 3382.519531 C 2484.320312 3362.578125 2484.578125 3333.820312 2478.921875 3310.761719 L 2313.449219 3326.660156 L 2234.941406 3329.789062 C 2225.640625 3329.941406 2209.550781 3327.851562 2200.960938 3330.179688 C 2195.308594 3331.699219 2182.609375 3345.25 2177.691406 3349.640625 L 2120.921875 3398.269531 C 2109.699219 3407.429688 2100 3416.699219 2086.519531 3422.421875 L 2084.121094 3423.390625 C 2111.539062 3458.96875 2139.628906 3506.390625 2136.078125 3553 C 2133.839844 3582.460938 2122.851562 3607.679688 2099.839844 3626.898438 C 2073.480469 3648.890625 2040.148438 3655.78125 2006.558594 3652.78125 C 1897.261719 3643.011719 1808.910156 3534.238281 1744.539062 3455.191406 L 1673.539062 3370.039062 L 1745.320312 3277.421875 C 1696.199219 3263.171875 1649.078125 3245.578125 1603.679688 3221.828125 C 1574.261719 3206.078125 1543.660156 3187.511719 1520.96875 3162.679688 C 1514.121094 3155.179688 1507.210938 3147.320312 1503.828125 3137.578125 C 1499.210938 3124.289062 1494.980469 3106.640625 1494.21875 3092.5 C 1491.871094 3048.671875 1503.101562 3002.378906 1514.039062 2960.230469 C 1535.761719 2876.539062 1565.601562 2794.121094 1601.441406 2715.441406 C 1582.148438 2718.171875 1562.519531 2718.011719 1543.078125 2718.070312 C 1459.558594 2718.320312 1383.851562 2700.980469 1304.519531 2676.351562 L 1293.621094 2802.058594 C 1291.78125 2822.46875 1291.96875 2845.949219 1286.089844 2865.558594 C 1283.988281 2872.589844 1280.328125 2877.429688 1275.269531 2882.621094 C 1258.890625 2899.441406 1237.890625 2910.011719 1214.910156 2914.5 C 1197.910156 2917.820312 1177.851562 2916.53125 1160.410156 2916.851562 L 1045.761719 2917.679688 L 622.515625 2916.921875 C 582.875 2916.898438 538.503906 2919.550781 508.484375 2888.96875 C 497.222656 2877.5 487.617188 2864.539062 485.03125 2848.289062 C 482.273438 2830.949219 484.648438 2810.621094 485.433594 2793.050781 L 490.535156 2689.578125 L 508.113281 2243.921875 C 485.402344 2243.960938 461.585938 2242.929688 442.726562 2228.941406 C 403.882812 2200.121094 400.566406 2145.980469 393.664062 2101.628906 C 387.742188 2063.578125 382.894531 2034.941406 407.996094 2002 C 429.179688 1974.199219 463.816406 1972.078125 495.589844 1966.328125 L 559.976562 1955.191406 L 593.542969 1527.320312 C 595.949219 1501.859375 597.679688 1487.878906 618.546875 1470.980469 C 630.851562 1461.011719 653.429688 1449.660156 669.117188 1447.25 C 694.246094 1443.378906 722.214844 1445.570312 747.628906 1445.871094 L 960.542969 1454.230469 L 1181.949219 1467.570312 C 1217.878906 1469.878906 1254.851562 1470.460938 1290.578125 1474.710938 C 1313.5 1477.441406 1352.539062 1484.050781 1366.898438 1503.898438 C 1371.28125 1509.960938 1370.539062 1517.378906 1370.421875 1524.5 C 1369.488281 1582.300781 1360.101562 1640.820312 1354.679688 1698.351562 L 1327.339844 1968.011719 C 1361.25 1987.421875 1402.738281 2006.230469 1431.710938 2032.609375 C 1438.121094 2038.441406 1443.199219 2046.71875 1445.539062 2055.058594 C 1449 2067.378906 1449.121094 2082 1449.890625 2094.78125 L 1452.140625 2186.328125 C 1476.519531 2195.511719 1495.800781 2207.269531 1517.691406 2221 C 1531.441406 2229.621094 1546.488281 2239.730469 1561.980469 2244.910156 C 1595.019531 2255.949219 1641.789062 2249.640625 1676 2246.28125 C 1691.5 2244.761719 1705.460938 2240.78125 1720.378906 2236.390625 C 1708.800781 2222.789062 1694.941406 2211.238281 1683.140625 2197.839844 C 1664.359375 2176.519531 1647.148438 2152.300781 1631.21875 2128.820312 C 1611.898438 2100.339844 1595.28125 2074.511719 1583.46875 2041.808594 C 1571.539062 2033.890625 1552.179688 2030.5 1538.390625 2026.140625 C 1488.878906 2010.480469 1447.808594 1981.671875 1423.609375 1934.800781 C 1397.929688 1885.070312 1386.601562 1825.5 1404.179688 1771.011719 C 1418.898438 1725.441406 1449.140625 1704.519531 1490 1683.878906 C 1455.960938 1631.769531 1442.191406 1565.460938 1430.089844 1505 C 1426.148438 1485.28125 1406.699219 1467.871094 1397.21875 1449.390625 C 1386.621094 1428.71875 1379.671875 1405.050781 1373.878906 1382.628906 C 1364.300781 1345.46875 1352.648438 1290.050781 1365.441406 1252.578125 C 1369.039062 1242.058594 1376 1231.910156 1381.601562 1222.339844 C 1377.929688 1108.121094 1367.070312 995.261719 1352.238281 882 C 1346.949219 841.578125 1341.019531 802.570312 1331.359375 762.851562 C 1327.078125 745.269531 1321.179688 721.5 1310.421875 707 C 1307.871094 706.230469 1305.660156 705.640625 1303 705.410156 C 1288.878906 704.191406 1273.589844 708.269531 1259.71875 710.910156 C 1195.238281 723.179688 1135.371094 746.238281 1076.128906 774.058594 C 1068.929688 777.449219 1046.648438 786.148438 1042.871094 792.628906 C 1039.460938 798.480469 1038.441406 814.761719 1036.199219 822 C 1024.339844 860.429688 1003.839844 894.109375 972.460938 919.578125 C 934.113281 950.691406 888.480469 960.300781 840.1875 955.238281 C 792.050781 950.199219 748.054688 923.851562 718.683594 885.558594 C 692.660156 851.640625 678.28125 799.609375 684.597656 757.25 C 692.625 703.449219 719.542969 662.761719 763.035156 630.699219 C 797.226562 605.5 853.5625 593.988281 895.308594 601.179688 C 907.683594 603.308594 921.957031 604.570312 933 610.820312 C 935.238281 612.101562 949.734375 622.351562 950.742188 622.261719 C 955.484375 621.800781 973.859375 602.640625 978.539062 598.539062 L 1046.628906 543.160156 C 1096.140625 505.339844 1152.980469 467.589844 1209.589844 441.46875 C 1256.589844 419.789062 1308.429688 406.679688 1360.011719 402.820312 "/>
<path fill-rule="nonzero" fill="rgb(98.983765%, 85.221863%, 64.613342%)" fill-opacity="1" d="M 2616.898438 1266.628906 C 2609.761719 1252.328125 2600.449219 1241.851562 2592.351562 1228.601562 C 2597.148438 1228.210938 2603.230469 1227.28125 2607.808594 1229.050781 C 2616.28125 1232.320312 2621.648438 1244.410156 2625.800781 1251.921875 C 2623.398438 1257.351562 2621.628906 1262.789062 2616.898438 1266.628906 "/>
<path fill-rule="nonzero" fill="rgb(27.735901%, 74.339294%, 43.569946%)" fill-opacity="1" d="M 854.175781 1932.25 C 877.515625 1923.460938 902.5625 1910.199219 927.050781 1906.648438 C 919.480469 1914.289062 911.171875 1920.148438 903.183594 1927.179688 C 894.679688 1934.660156 887.734375 1942.808594 877.929688 1948.738281 L 877.070312 1946.710938 C 873.539062 1940.859375 860.621094 1934.28125 854.175781 1932.25 "/>
<path fill-rule="nonzero" fill="rgb(98.498535%, 97.850037%, 67.230225%)" fill-opacity="1" d="M 3382.058594 2015.539062 C 3383.320312 2025.929688 3386.558594 2032.839844 3389.660156 2042.429688 L 3390.28125 2045.679688 C 3382.300781 2048.199219 3364.730469 2066.289062 3360.019531 2073.800781 C 3355.519531 2076.140625 3352.269531 2078.140625 3347 2077.789062 L 3345.820312 2074 C 3349.75 2053.851562 3370.050781 2032.101562 3382.058594 2015.539062 "/>
<path fill-rule="nonzero" fill="rgb(100%, 100%, 100%)" fill-opacity="1" d="M 2047.351562 3327.441406 L 2124.289062 3332.5 L 2106.449219 3348.628906 C 2099.539062 3354.609375 2092.460938 3359.5 2084.710938 3364.320312 C 2070.308594 3353.390625 2058.578125 3341.570312 2047.351562 3327.441406 "/>
<path fill-rule="nonzero" fill="rgb(98.498535%, 97.850037%, 67.230225%)" fill-opacity="1" d="M 3270.671875 2078.410156 C 3275.558594 2078.050781 3282.710938 2076.820312 3287.359375 2078.460938 C 3293.089844 2080.488281 3298.738281 2087.640625 3300.660156 2093.191406 C 3302.800781 2099.378906 3303.101562 2109.078125 3300.148438 2115 L 3278.5 2115.160156 L 3242.171875 2115.359375 L 3244.53125 2105 L 3246.078125 2098 C 3250.019531 2087.039062 3260.808594 2082.769531 3270.671875 2078.410156 "/>
<path fill-rule="nonzero" fill="rgb(98.182678%, 74.12262%, 34.962463%)" fill-opacity="1" d="M 2761.359375 1592.910156 C 2763.070312 1599.660156 2765.210938 1605.078125 2762 1611.75 C 2757.671875 1620.058594 2748.480469 1624.140625 2741 1629.378906 C 2725.398438 1640.308594 2710.898438 1653.921875 2692.441406 1659.789062 C 2686.339844 1661.738281 2680.179688 1662.480469 2673.828125 1663.019531 L 2673.730469 1662 C 2673.78125 1660.699219 2673.558594 1659.300781 2674.039062 1658.089844 C 2674.859375 1656.058594 2688.050781 1647.640625 2690.460938 1645.808594 C 2705.378906 1634.449219 2719.351562 1621.859375 2733.320312 1609.359375 L 2743.589844 1600.089844 C 2749.269531 1597.230469 2755.421875 1595.171875 2761.359375 1592.910156 "/>
<path fill-rule="nonzero" fill="rgb(98.983765%, 85.221863%, 64.613342%)" fill-opacity="1" d="M 2761.359375 1592.910156 C 2763.070312 1599.660156 2765.210938 1605.078125 2762 1611.75 C 2760.558594 1611.660156 2755.558594 1611.730469 2754 1611.019531 L 2751 1609.070312 C 2746.078125 1609.589844 2747.96875 1609.21875 2743.25 1610.371094 C 2738.851562 1611.441406 2737.589844 1610.539062 2733.320312 1609.359375 L 2743.589844 1600.089844 C 2749.269531 1597.230469 2755.421875 1595.171875 2761.359375 1592.910156 "/>
<path fill-rule="nonzero" fill="rgb(100%, 100%, 100%)" fill-opacity="1" d="M 3559.601562 2276.871094 L 3557.121094 2252.390625 C 3572.890625 2252.300781 3641.5 2246.5 3650.941406 2252.699219 C 3657.578125 2257.058594 3659.148438 2263.539062 3660.929688 2270.78125 C 3629.230469 2274.808594 3595.21875 2266.960938 3563.828125 2275.789062 L 3559.601562 2276.871094 "/>
<path fill-rule="nonzero" fill="rgb(100%, 100%, 100%)" fill-opacity="1" d="M 3075.71875 2198.03125 L 3053.078125 2198.359375 L 3055.660156 2174 C 3052.480469 2169.828125 3052.640625 2167.179688 3052.570312 2162.050781 C 3060.199219 2156.628906 3070.359375 2157.921875 3079.558594 2157.898438 L 3144.390625 2157.960938 L 3146.699219 2165 C 3138.710938 2173.71875 3111.859375 2166.03125 3101.078125 2171.320312 C 3094.359375 2174.621094 3081.648438 2191.921875 3075.71875 2198.03125 "/>
<path fill-rule="nonzero" fill="rgb(17.964172%, 49.398804%, 30.383301%)" fill-opacity="1" d="M 944.203125 1943.289062 L 936.46875 2003.371094 L 861.65625 2004.441406 C 890.386719 1990.101562 919.09375 1963.539062 944.203125 1943.289062 "/>
<path fill-rule="nonzero" fill="rgb(100%, 100%, 100%)" fill-opacity="1" d="M 925.640625 1845.78125 C 923.359375 1826.050781 925.898438 1811.28125 938.574219 1795.460938 C 949.265625 1782.121094 964.347656 1776.269531 980.992188 1774.410156 C 994.386719 1772.910156 1008.238281 1778.199219 1018.488281 1786.691406 C 1030.941406 1797.019531 1041.078125 1814.308594 1041.601562 1830.671875 C 1041.859375 1839.039062 1040.160156 1846.851562 1037.988281 1854.871094 L 1037.179688 1847.878906 C 1034.53125 1828.941406 1027.550781 1813.980469 1011.859375 1802.371094 C 1001.589844 1794.761719 989.753906 1791.699219 977.125 1794.460938 C 945.664062 1801.328125 940.015625 1822.089844 925.640625 1845.78125 "/>
<path fill-rule="nonzero" fill="rgb(17.964172%, 49.398804%, 30.383301%)" fill-opacity="1" d="M 976.246094 1941 C 977.957031 1940.898438 979.722656 1940.21875 981.371094 1940.691406 C 983.988281 1941.421875 992.59375 1951.289062 994.980469 1953.671875 L 1034.640625 1992.011719 C 1042.121094 1998.859375 1050.140625 2004.910156 1058.429688 2010.738281 L 973.648438 2005.898438 L 976.246094 1941 "/>
<path fill-rule="nonzero" fill="rgb(100%, 100%, 100%)" fill-opacity="1" d="M 1156.308594 2253.578125 C 1179.359375 2226.480469 1221.28125 2203.011719 1257 2200.078125 C 1270.53125 2198.980469 1293.511719 2197.761719 1304.199219 2207.53125 C 1310.101562 2212.921875 1309.511719 2214.359375 1310 2222 C 1304.75 2228.519531 1281.980469 2223.640625 1272.859375 2225.878906 C 1266.25 2227.5 1259.679688 2232.078125 1253.878906 2235.578125 C 1241.699219 2242.089844 1218.699219 2238.988281 1204.480469 2241.511719 C 1189.5 2244.160156 1175.820312 2249.640625 1162 2255.789062 L 1156.308594 2253.578125 "/>
<path fill-rule="nonzero" fill="rgb(96.44165%, 52.612305%, 7.113647%)" fill-opacity="1" d="M 3108.320312 2021 C 3115.640625 2020.390625 3123.328125 2023.460938 3129.859375 2026.53125 C 3150.699219 2036.359375 3170.128906 2052.058594 3186.558594 2068.078125 C 3191.011719 2072.429688 3196.929688 2077.039062 3199.089844 2083 L 3192.011719 2093 L 3188.808594 2096.140625 C 3166 2097.441406 3135.910156 2090.691406 3115.238281 2081 C 3114.441406 2064.519531 3102.160156 2055.160156 3102.488281 2037 C 3102.628906 2029.558594 3103.070312 2026.050781 3108.320312 2021 "/>
<path fill-rule="nonzero" fill="rgb(92.99469%, 11.634827%, 14.009094%)" fill-opacity="1" d="M 3559.601562 2276.871094 L 3563.828125 2275.789062 C 3595.21875 2266.960938 3629.230469 2274.808594 3660.929688 2270.78125 C 3658 2284.621094 3658.449219 2312.210938 3645.800781 2321.058594 C 3638.628906 2326.070312 3571.300781 2323.910156 3558.511719 2323.71875 L 3559.601562 2276.871094 "/>
<path fill-rule="nonzero" fill="rgb(36.328125%, 77.288818%, 48.782349%)" fill-opacity="1" d="M 997.496094 1502.050781 L 1022.699219 1501.980469 L 999.730469 1733 C 999.402344 1737.160156 1000.070312 1736.839844 997 1740.148438 C 991.0625 1739 986.429688 1739.128906 981.902344 1735 L 997.496094 1502.050781 "/>
<g clip-path="url(#clip-0)">
<g clip-path="url(#clip-1)">
<g clip-path="url(#clip-2)">
<path fill-rule="nonzero" fill="url(#linear-pattern-0)" d="M 879.707031 1859.765625 L 713.863281 1866.066406 L 708.023438 1712.351562 L 873.867188 1706.050781 Z M 879.707031 1859.765625 "/>
</g>
</g>
</g>
<path fill-rule="nonzero" fill="rgb(17.964172%, 49.398804%, 30.383301%)" fill-opacity="1" d="M 3240.898438 2242.378906 L 3304.320312 2241.191406 L 3305.160156 2326.019531 L 3240.949219 2327.191406 L 3240.898438 2242.378906 "/>
<path fill-rule="nonzero" fill="rgb(87.915039%, 95.748901%, 92.041016%)" fill-opacity="1" d="M 636.683594 2025.191406 L 609.246094 2011.671875 C 628.804688 2001.839844 647.445312 1996.25 667.609375 1988.539062 C 705.667969 1973.980469 743.097656 1959.359375 782.390625 1948.28125 C 793.589844 1945.121094 807.167969 1939.691406 818.738281 1941.421875 C 775.316406 1971.339844 726.527344 2006.230469 675.804688 2021.621094 C 664.535156 2025.03125 654.53125 2028.820312 642.652344 2026.519531 L 636.683594 2025.191406 "/>
<path fill-rule="nonzero" fill="rgb(27.735901%, 74.339294%, 43.569946%)" fill-opacity="1" d="M 1178.710938 1691 L 1182.621094 1691.140625 C 1190.660156 1696.621094 1194.628906 1702.539062 1199.808594 1710.558594 C 1197.199219 1719.261719 1190.371094 1728.269531 1185.351562 1735.820312 C 1176.699219 1748.828125 1167.398438 1761.738281 1155.339844 1771.839844 C 1136.929688 1787.261719 1105.960938 1797.320312 1082.710938 1802.039062 L 1071 1801.648438 C 1067 1798 1065.109375 1796.460938 1063.769531 1791 L 1124.351562 1738.460938 C 1143.058594 1721.621094 1156.878906 1704.480469 1178.710938 1691 "/>
<path fill-rule="nonzero" fill="rgb(36.328125%, 77.288818%, 48.782349%)" fill-opacity="1" d="M 1207.671875 1721.46875 C 1216.230469 1741.03125 1224.410156 1759.53125 1229.058594 1780.5 C 1220.359375 1792.039062 1211.019531 1803.898438 1199.570312 1812.851562 C 1171.28125 1834.941406 1132.261719 1844.859375 1097.421875 1849.898438 L 1078 1849.871094 L 1075.601562 1847 L 1077.808594 1840 C 1084.328125 1834.441406 1091.5 1831.941406 1099.238281 1828.511719 C 1152.71875 1804.839844 1186.410156 1776.429688 1207.671875 1721.46875 "/>
<path fill-rule="nonzero" fill="rgb(100%, 100%, 100%)" fill-opacity="1" d="M 762.945312 1697.839844 L 765.546875 1704.230469 C 765.984375 1731.699219 778.117188 1756.539062 797.890625 1775.5 C 814.996094 1791.898438 832.335938 1804.03125 852.570312 1816.261719 C 856.128906 1818.421875 873.394531 1827.050781 875 1829.859375 C 875.621094 1830.949219 875.390625 1832.371094 875.207031 1833.601562 L 874.101562 1835.980469 C 840.875 1836.351562 815.03125 1836.199219 783.671875 1822.980469 C 776.414062 1819.929688 766.914062 1816.609375 761.421875 1810.820312 C 746.550781 1795.171875 746.894531 1753.371094 748.6875 1732.699219 C 749.261719 1726.101562 751.222656 1720.609375 751.175781 1713.890625 L 751.148438 1712.140625 L 762.945312 1697.839844 "/>
<path fill-rule="nonzero" fill="rgb(27.735901%, 74.339294%, 43.569946%)" fill-opacity="1" d="M 762.945312 1697.839844 C 768.5 1689.71875 779.722656 1679.460938 790 1678.390625 C 799.722656 1677.378906 819.484375 1696.921875 826.199219 1703.828125 L 905.007812 1785.941406 L 887.820312 1805.488281 C 859.925781 1789.480469 830.800781 1773 807.296875 1750.808594 C 796.679688 1740.78125 777.78125 1707.058594 765.546875 1704.230469 L 762.945312 1697.839844 "/>
<path fill-rule="nonzero" fill="rgb(96.44165%, 52.612305%, 7.113647%)" fill-opacity="1" d="M 3382.058594 2015.539062 L 3389.300781 2007.539062 C 3394.808594 2001.578125 3399.53125 1996.148438 3407.910156 1995.820312 C 3420.109375 2001.839844 3430.121094 2019.179688 3433.941406 2031.738281 C 3438.089844 2045.339844 3443.851562 2075.238281 3436.429688 2088 C 3429.660156 2099.648438 3407.871094 2104.179688 3395.660156 2106.601562 C 3381.519531 2109.398438 3365.359375 2111.238281 3351 2109.988281 C 3351 2107.519531 3350.601562 2108.691406 3352.609375 2106.640625 L 3350.730469 2105.738281 L 3346.359375 2102 L 3360.019531 2073.800781 C 3364.730469 2066.289062 3382.300781 2048.199219 3390.28125 2045.679688 L 3389.660156 2042.429688 C 3386.558594 2032.839844 3383.320312 2025.929688 3382.058594 2015.539062 "/>
<path fill-rule="nonzero" fill="rgb(100%, 100%, 100%)" fill-opacity="1" d="M 3382.058594 2015.539062 L 3389.300781 2007.539062 C 3394.808594 2001.578125 3399.53125 1996.148438 3407.910156 1995.820312 L 3407.378906 1997.558594 C 3404.941406 2005.25 3400.121094 2012.371094 3398.261719 2020 C 3395.96875 2029.371094 3396.199219 2040.300781 3395.140625 2049.949219 L 3390.28125 2045.679688 L 3389.660156 2042.429688 C 3386.558594 2032.839844 3383.320312 2025.929688 3382.058594 2015.539062 "/>
<path fill-rule="nonzero" fill="rgb(98.059082%, 74.032593%, 4.222107%)" fill-opacity="1" d="M 3360.019531 2073.800781 C 3364.730469 2066.289062 3382.300781 2048.199219 3390.28125 2045.679688 L 3395.140625 2049.949219 C 3391.089844 2063.121094 3369.78125 2097.558594 3357.421875 2103.410156 L 3350.730469 2105.738281 L 3346.359375 2102 L 3360.019531 2073.800781 "/>
<path fill-rule="nonzero" fill="rgb(88.839722%, 11.401367%, 14.421082%)" fill-opacity="1" d="M 987.964844 2310.378906 L 992.855469 2239.050781 L 1095.019531 2241.300781 C 1084.441406 2267.960938 1077.460938 2292.738281 1077.5 2321.640625 L 1075.050781 2312.480469 C 1065.390625 2308.601562 1053.519531 2310.261719 1043.199219 2310.339844 L 987.964844 2310.378906 "/>
<path fill-rule="nonzero" fill="rgb(88.839722%, 11.401367%, 14.421082%)" fill-opacity="1" d="M 3552.800781 2523.488281 L 3552.898438 2367.078125 C 3575.5 2367.378906 3604.351562 2364.800781 3626 2370.421875 C 3631.789062 2378.910156 3628.210938 2441.789062 3628.101562 2457.109375 L 3554.539062 2456.890625 L 3554.570312 2521.71875 L 3552.800781 2523.488281 "/>
<path fill-rule="nonzero" fill="rgb(17.964172%, 49.398804%, 30.383301%)" fill-opacity="1" d="M 871.539062 2330.128906 L 874.222656 2239.738281 L 953.921875 2240.019531 L 950.28125 2324.050781 L 871.539062 2330.128906 "/>
<path fill-rule="nonzero" fill="rgb(96.44165%, 52.612305%, 7.113647%)" fill-opacity="1" d="M 925.640625 1845.78125 C 940.015625 1822.089844 945.664062 1801.328125 977.125 1794.460938 C 989.753906 1791.699219 1001.589844 1794.761719 1011.859375 1802.371094 C 1027.550781 1813.980469 1034.53125 1828.941406 1037.179688 1847.878906 L 1037.988281 1854.871094 L 1034.199219 1861.601562 C 1024.679688 1875.980469 1004.921875 1881.941406 988.84375 1884.601562 C 974.566406 1886.960938 956.347656 1888 944.304688 1878.71875 C 933.449219 1870.371094 927.828125 1859.03125 925.640625 1845.78125 "/>
<path fill-rule="nonzero" fill="rgb(100%, 100%, 100%)" fill-opacity="1" d="M 2433.25 2558.769531 C 2464.679688 2564.78125 2497.589844 2569.960938 2529.578125 2566.601562 C 2540.859375 2586.871094 2542.25 2612.261719 2552.769531 2633.378906 L 2554.089844 2636 C 2551.199219 2640.578125 2548.648438 2641.210938 2543.898438 2643.628906 L 2461.199219 2659.109375 L 2433.25 2558.769531 "/>
<path fill-rule="nonzero" fill="rgb(92.99469%, 11.634827%, 14.009094%)" fill-opacity="1" d="M 3132.789062 2240.859375 L 3206.21875 2241.160156 L 3205.699219 2327.058594 L 3167.558594 2326.640625 L 3120.050781 2327.929688 C 3113.878906 2315.410156 3111.820312 2300.25 3107.46875 2286.910156 C 3102.660156 2272.171875 3095.351562 2258.089844 3088.550781 2244.191406 L 3132.789062 2240.859375 "/>
<path fill-rule="nonzero" fill="rgb(36.328125%, 77.288818%, 48.782349%)" fill-opacity="1" d="M 854.175781 1932.25 C 860.621094 1934.28125 873.539062 1940.859375 877.070312 1946.710938 L 877.929688 1948.738281 L 811 1991.019531 C 765.9375 2017.359375 720.058594 2039.769531 686.261719 2081.140625 C 673.59375 2057.039062 658.539062 2041.238281 636.683594 2025.191406 L 642.652344 2026.519531 C 654.53125 2028.820312 664.535156 2025.03125 675.804688 2021.621094 C 726.527344 2006.230469 775.316406 1971.339844 818.738281 1941.421875 C 819.625 1943.101562 818.875 1941.949219 822 1943.960938 C 833.460938 1942.140625 843.652344 1936.941406 854.175781 1932.25 "/>
<path fill-rule="nonzero" fill="rgb(100%, 100%, 100%)" fill-opacity="1" d="M 1026.128906 624.449219 C 1086.46875 570.339844 1156.511719 521.429688 1229.378906 485.828125 C 1255.050781 473.289062 1281.25 461.46875 1309.378906 455.441406 C 1352.179688 446.28125 1401.980469 452.421875 1444.628906 459.578125 C 1466.738281 463.300781 1489.570312 467.03125 1510.800781 474.328125 C 1501.121094 479.539062 1488.140625 477.410156 1477.390625 477.191406 L 1383.089844 472.398438 C 1360.621094 472.039062 1332.910156 472.839844 1311.121094 478.460938 C 1300.019531 481.320312 1289.71875 487.179688 1279 491.179688 C 1207.359375 517.929688 1145.78125 558.601562 1079.640625 595.839844 C 1062.980469 605.21875 1044.679688 619.96875 1026.128906 624.449219 "/>
<path fill-rule="nonzero" fill="rgb(36.328125%, 77.288818%, 48.782349%)" fill-opacity="1" d="M 3242.210938 2577.519531 L 3244.058594 2366.621094 C 3263.699219 2367.699219 3282.449219 2368.339844 3302.089844 2366.238281 L 3301.710938 2483.441406 L 3299.851562 2534.519531 L 3244.859375 2576.980469 L 3242.210938 2577.519531 "/>
<path fill-rule="nonzero" fill="rgb(100%, 100%, 100%)" fill-opacity="1" d="M 3002.210938 2522.359375 C 3022.871094 2531.25 3045.511719 2541.960938 3062.738281 2556.628906 C 3084.140625 2574.859375 3105.878906 2608.308594 3107.660156 2637.078125 C 3109.25 2662.898438 3098.761719 2679.378906 3082.351562 2698.070312 L 3065 2716.039062 C 3060.601562 2719.671875 3055.839844 2721.980469 3050.058594 2721.609375 C 3041.359375 2707 3039.019531 2681.988281 3035.148438 2665 L 3002.210938 2522.359375 "/>
<path fill-rule="nonzero" fill="rgb(100%, 100%, 100%)" fill-opacity="1" d="M 2011.019531 1290.761719 C 2024.550781 1289.519531 2038.320312 1290.628906 2049.308594 1299.941406 C 2054.339844 1304.199219 2053.859375 1307.078125 2053.96875 1313.320312 C 2054.109375 1321.820312 2052.921875 1328.238281 2047 1334.191406 C 2032.398438 1334.511719 2019.328125 1329.851562 2005 1328.609375 C 1930.480469 1322.179688 1866.03125 1359.898438 1811.679688 1406.808594 L 1809.820312 1408.300781 C 1801.359375 1414.808594 1791.339844 1423.621094 1780 1422.039062 C 1777.53125 1418.578125 1776.058594 1416.320312 1775.621094 1411.988281 C 1773.710938 1392.988281 1783.238281 1377.359375 1794.601562 1363.078125 C 1820.199219 1330.890625 1863.050781 1321.519531 1901 1311.980469 C 1937.558594 1302.78125 1973.480469 1295.171875 2011.019531 1290.761719 "/>
<path fill-rule="nonzero" fill="rgb(92.99469%, 11.634827%, 14.009094%)" fill-opacity="1" d="M 2269.738281 1954.621094 C 2291.589844 1951.761719 2315.308594 1954.511719 2336 1962 C 2355.429688 1969.03125 2379.890625 1981.078125 2388.261719 2001.011719 C 2391.429688 2008.570312 2393.050781 2016.28125 2389.898438 2024 C 2378.851562 2036.308594 2356.949219 2037.640625 2341.421875 2040 C 2306.769531 2040.539062 2271.449219 2035.238281 2240 2019.859375 C 2232.308594 2016.109375 2216.789062 2008.378906 2214.679688 1999.558594 C 2212.789062 1991.71875 2217.351562 1983.121094 2221.921875 1977 C 2233.640625 1961.300781 2251.640625 1957.800781 2269.738281 1954.621094 "/>
<path fill-rule="nonzero" fill="rgb(100%, 100%, 100%)" fill-opacity="1" d="M 2413.101562 1232.808594 L 2468.171875 1234.519531 C 2503.410156 1236.988281 2546.539062 1244.160156 2575.390625 1266.609375 C 2582.859375 1272.421875 2589.339844 1281.011719 2595.539062 1288.171875 C 2595.898438 1296.511719 2599.488281 1305.480469 2601.808594 1313.5 C 2582.960938 1311.699219 2566.199219 1305.699219 2548.449219 1299.46875 C 2514.878906 1288.988281 2476.660156 1282.75 2441.601562 1283.878906 C 2428.238281 1284.308594 2414.808594 1286.109375 2401.691406 1288.640625 C 2392.21875 1290.460938 2376.449219 1296.171875 2367.179688 1293.441406 C 2362.078125 1291.941406 2358.300781 1287.230469 2356.28125 1282.558594 C 2352.78125 1274.488281 2353.460938 1263.171875 2357.378906 1255.46875 C 2361.328125 1247.730469 2373.539062 1239.628906 2381.578125 1237.058594 C 2391.261719 1233.96875 2402.980469 1233.738281 2413.101562 1232.808594 "/>
<path fill-rule="nonzero" fill="rgb(17.964172%, 49.398804%, 30.383301%)" fill-opacity="1" d="M 3242.210938 2577.519531 L 3244.859375 2576.980469 L 3299.851562 2534.519531 L 3301.710938 2483.441406 L 3302.019531 2749.359375 L 3241.628906 2747.78125 L 3242.210938 2577.519531 "/>
<path fill-rule="nonzero" fill="rgb(88.839722%, 11.401367%, 14.421082%)" fill-opacity="1" d="M 1210.511719 2580.921875 C 1216.121094 2591.878906 1221.769531 2603.171875 1229.199219 2613.039062 C 1236.480469 2622.71875 1246 2631.148438 1253.960938 2640.371094 C 1256.75 2687.890625 1251.328125 2734.03125 1248.660156 2781.328125 C 1247.570312 2800.75 1249.46875 2827.289062 1244.21875 2845.730469 C 1242.011719 2853.488281 1235.738281 2856.640625 1229.140625 2860.359375 C 1217.96875 2864.941406 1205.199219 2870.601562 1193 2870.210938 C 1192.070312 2869.140625 1190.679688 2868.339844 1190.210938 2867 C 1188.671875 2862.621094 1190.921875 2848.429688 1191.078125 2842.921875 L 1200.898438 2678.730469 L 1210.511719 2580.921875 "/>
<path fill-rule="nonzero" fill="rgb(92.99469%, 11.634827%, 14.009094%)" fill-opacity="1" d="M 1960.308594 1677.660156 L 1975.949219 1682.46875 C 1981.101562 1687.890625 1986.308594 1693.679688 1992.621094 1697.761719 C 2004.828125 1705.679688 2015.269531 1706.460938 2021.261719 1720.761719 C 1999.851562 1724.738281 1984.019531 1731.75 1964 1739.601562 C 1956.289062 1742.628906 1948.078125 1744.5 1940.640625 1748.191406 C 1933.691406 1751.628906 1919.660156 1765.089844 1913.46875 1766.339844 C 1910 1767.039062 1899.339844 1763.679688 1895.46875 1762.960938 C 1851.578125 1754.75 1810.800781 1743.789062 1769.140625 1727.539062 C 1778.589844 1721.609375 1784.230469 1709.328125 1792.320312 1704.480469 C 1799.769531 1700.019531 1812.800781 1697.578125 1821.269531 1695.128906 C 1852.558594 1686.078125 1880.71875 1680.609375 1913.238281 1679.339844 C 1927.339844 1678.789062 1942.601562 1680.351562 1956.449219 1678.300781 L 1960.308594 1677.660156 "/>
<path fill-rule="nonzero" fill="rgb(27.735901%, 74.339294%, 43.569946%)" fill-opacity="1" d="M 3144.390625 2157.960938 L 3493.710938 2162.660156 L 3489.96875 2195.230469 L 3487.761719 2194.941406 C 3471.339844 2193 3454.308594 2193.890625 3437.789062 2194.011719 L 3344.679688 2196.078125 L 3169.609375 2198.109375 L 3075.71875 2198.03125 C 3081.648438 2191.921875 3094.359375 2174.621094 3101.078125 2171.320312 C 3111.859375 2166.03125 3138.710938 2173.71875 3146.699219 2165 L 3144.390625 2157.960938 "/>
<path fill-rule="nonzero" fill="rgb(100%, 100%, 100%)" fill-opacity="1" d="M 1491.019531 2343.039062 C 1495.699219 2322.480469 1495.738281 2300.5 1496.648438 2279.480469 C 1562.800781 2300.328125 1640.578125 2301.339844 1708.21875 2287.140625 C 1727.210938 2283.160156 1745.351562 2276.71875 1764.128906 2271.960938 C 1773.839844 2278.601562 1781.140625 2286.890625 1788.960938 2295.558594 C 1773.148438 2310.710938 1752.820312 2318.339844 1732.261719 2324.921875 C 1662.671875 2347.179688 1587.480469 2347.75 1515.101562 2346.058594 C 1506.679688 2345.859375 1499.21875 2345.300781 1491.019531 2343.039062 "/>
<path fill-rule="nonzero" fill="rgb(27.735901%, 74.339294%, 43.569946%)" fill-opacity="1" d="M 1021.878906 1916.191406 C 1050.859375 1922.769531 1079.28125 1934.640625 1107.660156 1943.660156 C 1124.320312 1948.96875 1141.621094 1950.699219 1158 1956.058594 C 1178.5 1962.761719 1198.761719 1971.878906 1218.859375 1979.800781 L 1297.589844 2011.421875 C 1282.859375 2025.789062 1270.878906 2041.460938 1259.019531 2058.238281 C 1251.21875 2070.511719 1245.28125 2082.011719 1240.128906 2095.628906 C 1219.148438 2077.039062 1201.261719 2055.28125 1178.730469 2038.359375 C 1124.03125 1997.320312 1062.25 1974.859375 1021.878906 1916.191406 "/>
<path fill-rule="nonzero" fill="rgb(92.99469%, 11.634827%, 14.009094%)" fill-opacity="1" d="M 3338.160156 2238.648438 L 3446.171875 2239.238281 C 3465.75 2239.511719 3487.238281 2238 3506.480469 2240.570312 C 3511.878906 2241.289062 3516.800781 2242.441406 3521.019531 2246.101562 C 3522.828125 2247.671875 3525.390625 2250.671875 3526.039062 2253 C 3527.171875 2257.089844 3526 2265.371094 3526.019531 2269.828125 C 3526.058594 2279.449219 3527.25 2288.480469 3527.789062 2298 C 3528.28125 2306.628906 3528.761719 2313.410156 3523 2319.980469 C 3502.550781 2327.960938 3475.78125 2324.421875 3454.011719 2324.410156 L 3340.039062 2323.941406 L 3338.160156 2238.648438 "/>
<path fill-rule="nonzero" fill="rgb(96.44165%, 52.612305%, 7.113647%)" fill-opacity="1" d="M 904.40625 2047 C 909.390625 2046.539062 907.023438 2046.171875 911.527344 2048 L 906.972656 2194.140625 L 799 2192.878906 L 795 2191.679688 C 786.652344 2148.261719 787.140625 2093.789062 791.847656 2049.820312 L 904.40625 2047 "/>
<path fill-rule="nonzero" fill="rgb(88.839722%, 11.401367%, 14.421082%)" fill-opacity="1" d="M 552.011719 2295.378906 L 554.320312 2239.929688 L 840.640625 2240.878906 L 840.195312 2244 L 836.785156 2315.429688 C 821.265625 2309.929688 805.34375 2310.199219 789.09375 2309.03125 L 682.351562 2304.058594 L 552.011719 2295.378906 "/>
<path fill-rule="nonzero" fill="rgb(92.99469%, 11.634827%, 14.009094%)" fill-opacity="1" d="M 3552.800781 2523.488281 L 3554.570312 2521.71875 L 3554.539062 2456.890625 L 3628.101562 2457.109375 L 3626.101562 2619.679688 C 3625.609375 2644.480469 3629.519531 2675.921875 3621.800781 2699.550781 C 3597.71875 2722.339844 3572.140625 2729 3541 2737.511719 L 3539.109375 2735 C 3543.800781 2732.410156 3549.53125 2730.839844 3551.269531 2725.398438 C 3555.898438 2710.921875 3553.058594 2684.78125 3553.078125 2669.238281 L 3552.800781 2523.488281 "/>
<path fill-rule="nonzero" fill="rgb(100%, 100%, 100%)" fill-opacity="1" d="M 2590.109375 2891 L 2595.109375 2891 C 2598.828125 2906.878906 2598.859375 2924.179688 2599.949219 2940.429688 C 2602.96875 2985.441406 2603.820312 3029.078125 2602.179688 3074.199219 L 2499.910156 3091.589844 L 2486.28125 2910.980469 C 2521.160156 2907.878906 2555.871094 2898.171875 2590.109375 2891 "/>
<path fill-rule="nonzero" fill="rgb(92.99469%, 11.634827%, 14.009094%)" fill-opacity="1" d="M 2334.230469 1626.75 C 2355.601562 1624.210938 2381.429688 1632.761719 2398.859375 1645.050781 C 2418.359375 1658.820312 2435.949219 1679.320312 2438.769531 1704 C 2440.160156 1716.160156 2431.101562 1731.070312 2423.261719 1739.949219 C 2406.210938 1759.269531 2375.199219 1764.910156 2350.890625 1766.941406 C 2319.699219 1766.171875 2294.960938 1763.070312 2268.46875 1745.558594 C 2256.398438 1737.589844 2246.53125 1725.570312 2243.898438 1711 C 2241.558594 1698.058594 2250.441406 1675.910156 2258.101562 1665.628906 C 2277.609375 1639.421875 2302.941406 1630.679688 2334.230469 1626.75 "/>
<path fill-rule="nonzero" fill="rgb(100%, 100%, 100%)" fill-opacity="1" d="M 2403.679688 1665 C 2407 1664.359375 2410.148438 1662.621094 2413.121094 1664.730469 C 2418.738281 1668.71875 2420.769531 1676.519531 2421.648438 1683 C 2407.96875 1697.941406 2391.761719 1704.46875 2372 1707.378906 C 2364.660156 1705.660156 2361.019531 1704.289062 2355.570312 1699 C 2353.621094 1694.039062 2353.460938 1694.371094 2355.460938 1689.480469 C 2369.390625 1678.421875 2387.199219 1671.390625 2403.679688 1665 "/>
<path fill-rule="nonzero" fill="rgb(98.182678%, 74.12262%, 34.962463%)" fill-opacity="1" d="M 1511.230469 1728.191406 C 1516.859375 1728.429688 1523.410156 1728.359375 1528.289062 1731.429688 C 1533.089844 1734.460938 1535.601562 1742.738281 1536.859375 1747.960938 C 1545.859375 1785.070312 1548.988281 1823.851562 1555.269531 1861.519531 C 1562.109375 1902.519531 1572.339844 1944.171875 1582.191406 1984.589844 C 1565.109375 1983.070312 1549.851562 1978.988281 1534.019531 1972.511719 L 1526.539062 1968.660156 C 1489.980469 1949.25 1467.871094 1920.460938 1455.960938 1881.070312 C 1445.441406 1846.269531 1444.480469 1799.5 1462.539062 1766.898438 C 1473.449219 1747.199219 1489.621094 1734.320312 1511.230469 1728.191406 "/>
<path fill-rule="nonzero" fill="rgb(100%, 100%, 100%)" fill-opacity="1" d="M 1584.488281 1425 L 1589.539062 1424.28125 C 1594.808594 1446.210938 1595.460938 1469.839844 1598.171875 1492.28125 L 1612.910156 1613.191406 C 1613.898438 1623.480469 1618.46875 1642.78125 1613.289062 1651.238281 C 1600.378906 1652.140625 1581.828125 1637.191406 1570.128906 1630.429688 C 1559.5 1640.179688 1552.648438 1668.519531 1542.238281 1673.460938 L 1536.230469 1667.070312 C 1515.738281 1638.878906 1504.289062 1605.148438 1494.230469 1572.070312 C 1484.660156 1540.601562 1476.421875 1509.78125 1472.019531 1477.160156 L 1584.488281 1425 "/>
<path fill-rule="nonzero" fill="rgb(100%, 100%, 100%)" fill-opacity="1" d="M 2864.710938 3219 C 2869.378906 3217.921875 2867.070312 3217.898438 2871.660156 3219 L 2836.269531 3306.929688 L 2706.371094 3352.710938 C 2669.359375 3363.789062 2626.738281 3374.550781 2587.660156 3371.390625 C 2575.171875 3370.378906 2562.53125 3366.699219 2550.429688 3363.578125 C 2547.269531 3362.378906 2545.328125 3361.289062 2542.570312 3359.441406 C 2533.871094 3344.960938 2535.960938 3319.328125 2535.269531 3302.519531 C 2577.5 3298.039062 2618.789062 3288.078125 2660 3278.210938 L 2864.710938 3219 "/>
<path fill-rule="nonzero" fill="rgb(98.182678%, 74.12262%, 34.962463%)" fill-opacity="1" d="M 1156.308594 2253.578125 L 1162 2255.789062 C 1175.820312 2249.640625 1189.5 2244.160156 1204.480469 2241.511719 C 1218.699219 2238.988281 1241.699219 2242.089844 1253.878906 2235.578125 C 1277.050781 2251.730469 1306.960938 2267.601562 1312 2298 C 1316.371094 2324.398438 1312.039062 2353.539062 1296.121094 2375.441406 C 1283.941406 2392.21875 1262.539062 2406.378906 1242 2409.859375 C 1213.460938 2414.699219 1185.699219 2408.570312 1162.550781 2391.089844 C 1143.699219 2376.851562 1129.078125 2355.320312 1126.949219 2331.378906 C 1124.679688 2305.761719 1134.269531 2278.859375 1150.839844 2259.519531 L 1156.308594 2253.578125 "/>
<path fill-rule="nonzero" fill="rgb(92.99469%, 11.634827%, 14.009094%)" fill-opacity="1" d="M 3115.71875 2366.851562 L 3209.550781 2366.789062 L 3205.691406 2748.789062 L 3123.121094 2747.878906 C 3116.679688 2748.101562 3107.808594 2749.449219 3101.890625 2747 C 3112.578125 2738.480469 3120.570312 2730.140625 3128.179688 2718.761719 C 3146.738281 2690.980469 3160 2650.449219 3152.898438 2617.019531 L 3141.921875 2577 C 3131.839844 2551.238281 3105.988281 2530.339844 3080.96875 2519.679688 L 3077.761719 2518.328125 C 3106.53125 2470.621094 3113.730469 2421.558594 3115.71875 2366.851562 "/>
<path fill-rule="nonzero" fill="rgb(100%, 100%, 100%)" fill-opacity="1" d="M 2893.941406 2199.21875 C 2903.859375 2202.78125 2914.609375 2203.519531 2924.898438 2205.691406 C 2953.28125 2211.648438 2984.828125 2219.691406 3010.109375 2233.949219 C 3038.449219 2249.941406 3054.898438 2279.640625 3063.328125 2310.070312 C 3078.328125 2364.199219 3073.941406 2422.238281 3045.949219 2471.53125 C 3043.148438 2475.691406 3041.25 2478.820312 3037 2481.640625 C 3020.839844 2476.21875 3005.320312 2467.078125 2990.019531 2459.5 C 2985.101562 2457.058594 2976.808594 2454.210938 2973.738281 2449.671875 C 2970 2444.121094 2967.640625 2435.558594 2964.789062 2429.300781 L 2936.558594 2362.238281 C 2919.691406 2320.929688 2901.011719 2281.300781 2878.519531 2242.761719 L 2893.941406 2199.21875 "/>
<path fill-rule="nonzero" fill="rgb(100%, 100%, 100%)" fill-opacity="1" d="M 1351.761719 2224.039062 L 1444 2242.019531 C 1445.789062 2280.148438 1447.621094 2317.921875 1443.75 2356 C 1441.140625 2381.660156 1435.25 2407.039062 1429.140625 2432.050781 C 1421.101562 2464.96875 1411.160156 2497 1392.820312 2525.890625 C 1376.851562 2551.050781 1360.488281 2568.730469 1330.421875 2575.339844 C 1311.171875 2576.558594 1290.320312 2574.140625 1274.660156 2561.320312 C 1257.339844 2547.148438 1250.140625 2524.699219 1246.800781 2503.558594 C 1245.910156 2497.890625 1241.609375 2465.320312 1243.578125 2462.738281 C 1245.328125 2460.460938 1251.859375 2458.699219 1254.550781 2457.699219 C 1263.78125 2454.28125 1273.039062 2450.898438 1281.628906 2446.039062 C 1297.738281 2436.921875 1316.191406 2420.550781 1326.609375 2405.359375 C 1361.589844 2354.339844 1361.78125 2282.289062 1351.761719 2224.039062 "/>
<g clip-path="url(#clip-3)">
<g clip-path="url(#clip-4)">
<g clip-path="url(#clip-5)">
<path fill-rule="nonzero" fill="url(#linear-pattern-1)" d="M 946.605469 2892.066406 L 746.796875 2853.097656 L 853.65625 2305.203125 L 1053.460938 2344.175781 Z M 946.605469 2892.066406 "/>
</g>
</g>
</g>
<path fill-rule="nonzero" fill="rgb(92.99469%, 11.634827%, 14.009094%)" fill-opacity="1" d="M 541.507812 2014.859375 L 541.535156 2014.78125 C 545.980469 2014.660156 555.5625 2013.199219 559.558594 2014.261719 C 561.171875 2014.691406 564.867188 2018.5 566.433594 2019.75 L 591.515625 2039.300781 C 608.011719 2051.480469 628.539062 2060.640625 643.140625 2074.859375 C 657.65625 2089 665.441406 2107.511719 681.800781 2120.300781 L 750.546875 2057.371094 L 754.636719 2194.039062 L 713.5 2194.640625 L 560.796875 2191.558594 L 504.769531 2190.019531 C 495.28125 2189.640625 482.101562 2189.371094 474 2183.980469 C 460.613281 2175.070312 451.8125 2148.371094 448.8125 2133.460938 C 444.359375 2111.308594 428.964844 2053.011719 443.746094 2033.808594 C 450.425781 2025.140625 466.003906 2025.441406 476 2024.011719 L 541.507812 2014.859375 "/>
<path fill-rule="nonzero" fill="rgb(92.99469%, 11.634827%, 14.009094%)" fill-opacity="1" d="M 1328.789062 2031.578125 C 1344.199219 2035.691406 1369.671875 2044.578125 1380.03125 2057.210938 C 1403.648438 2086.019531 1392.941406 2139.179688 1389.429688 2172.609375 C 1361.898438 2162.308594 1336.03125 2146.359375 1306.378906 2142.050781 C 1290.441406 2139.730469 1274.941406 2141.421875 1259 2142.671875 C 1233.898438 2144.640625 1217.351562 2146.539062 1194.308594 2158.371094 C 1175.480469 2168.039062 1154.78125 2184.800781 1134.828125 2190.300781 C 1125.710938 2192.800781 1115.058594 2191.949219 1105.679688 2191.949219 L 1041 2190.511719 L 983.839844 2191.488281 L 954.519531 2190.289062 L 959.621094 2048.019531 C 1008.238281 2044.78125 1059.378906 2048.699219 1108 2050.859375 C 1120.769531 2051.421875 1142.53125 2049.910156 1154.378906 2054.261719 C 1166.761719 2058.800781 1178.980469 2070 1189.351562 2078.28125 C 1206.101562 2091.660156 1223.609375 2115.308594 1244 2121.578125 C 1248.078125 2120.96875 1251.300781 2120.148438 1254.25 2117.019531 C 1259.71875 2111.21875 1263.671875 2102.699219 1268.039062 2096 C 1283.421875 2072.371094 1301.96875 2047.679688 1326.441406 2032.941406 L 1328.789062 2031.578125 "/>
<path fill-rule="nonzero" fill="rgb(98.059082%, 74.032593%, 4.222107%)" fill-opacity="1" d="M 2646.121094 2656.640625 C 2655.960938 2657.460938 2661.078125 2658.78125 2668.359375 2665.660156 C 2674.820312 2671.769531 2677.21875 2681.71875 2679.601562 2689.980469 C 2685.738281 2711.351562 2688.898438 2732.488281 2692.300781 2754.371094 C 2694.378906 2767.789062 2697.671875 2780.488281 2698.398438 2794.160156 C 2698.980469 2804.941406 2700.621094 2819.71875 2692.371094 2827.851562 C 2680.300781 2839.738281 2524.390625 2870.53125 2497.921875 2874.460938 C 2487.558594 2876 2477.089844 2876.238281 2466.628906 2876.328125 C 2457.53125 2875.660156 2448.160156 2874.5 2441.980469 2867 C 2427.589844 2849.511719 2412.75 2741.839844 2414.378906 2717 C 2418.898438 2711.910156 2423.421875 2706.359375 2430 2703.960938 C 2441.28125 2699.839844 2454.179688 2698.039062 2465.921875 2695.589844 L 2545 2679.929688 C 2578.75 2672.410156 2611.691406 2661.171875 2646.121094 2656.640625 "/>
<path fill-rule="nonzero" fill="rgb(6.266785%, 5.734253%, 5.047607%)" fill-opacity="1" d="M 2621.179688 2690.121094 C 2626.28125 2689.398438 2629.21875 2689.488281 2634.160156 2691 C 2641.46875 2701.761719 2642.878906 2724.800781 2645.558594 2738.160156 C 2650.140625 2761.011719 2656.28125 2783.21875 2659.601562 2806.359375 C 2634.050781 2815.800781 2607.078125 2820.691406 2580.660156 2827.039062 C 2550.570312 2834.28125 2521.328125 2842.421875 2490.53125 2846.460938 L 2477 2845.691406 C 2470.058594 2835.300781 2467.210938 2821.21875 2464.160156 2809.210938 L 2447.5 2733.078125 C 2452.460938 2729.511719 2460.578125 2728.53125 2466.621094 2727 L 2515.210938 2715.769531 L 2569.128906 2702.230469 C 2586.628906 2698.160156 2603.890625 2695.28125 2621.179688 2690.121094 "/>
<path fill-rule="nonzero" fill="rgb(100%, 100%, 100%)" fill-opacity="1" d="M 866.289062 646.769531 C 896.839844 648.71875 927.742188 659.058594 950.875 679.738281 C 974.789062 701.128906 992.785156 738.609375 994.070312 770.898438 C 995.601562 809.148438 983.015625 842.03125 957.253906 870.039062 C 931.902344 897.589844 896.617188 907.519531 860.445312 909.21875 C 829.980469 907.511719 800.03125 899.53125 776.179688 879.558594 C 748.554688 856.429688 732.867188 826.078125 729.457031 790.269531 C 726.257812 756.730469 738.84375 722.578125 760.152344 696.929688 C 788.324219 663 823.789062 650.421875 866.289062 646.769531 "/>
<path fill-rule="nonzero" fill="rgb(92.99469%, 11.634827%, 14.009094%)" fill-opacity="1" d="M 1057.960938 1503.910156 L 1214.859375 1512.929688 C 1239.5 1514.570312 1265.140625 1513.390625 1289.609375 1516.488281 C 1300.960938 1517.929688 1312.679688 1522.050781 1323.601562 1525.378906 L 1283.359375 1937.820312 L 1257.03125 1932.621094 C 1242.839844 1930.789062 1229.691406 1924.179688 1215.75 1920.71875 C 1165.648438 1908.300781 1112.578125 1893.800781 1061.171875 1890.148438 L 1094.230469 1885.5 C 1133.289062 1880.730469 1173.328125 1873.601562 1208 1853.859375 C 1229.75 1841.480469 1253.121094 1826.761719 1259.761719 1801.179688 L 1260.558594 1798 C 1268.871094 1765.53125 1258.828125 1730.121094 1243.320312 1701.121094 C 1227.148438 1670.871094 1209.570312 1651.070312 1175.898438 1640.828125 C 1149.320312 1649.570312 1136.738281 1664.871094 1118.21875 1684.28125 L 1077.550781 1725 C 1065.800781 1736.230469 1052.421875 1745.730469 1039.300781 1755.261719 L 1036.039062 1753 C 1028.660156 1734.871094 1053.589844 1532.921875 1057.960938 1503.910156 "/>
<path fill-rule="nonzero" fill="rgb(92.99469%, 11.634827%, 14.009094%)" fill-opacity="1" d="M 3333.929688 2364.46875 L 3514.191406 2366.019531 L 3512.148438 2584.941406 C 3512.128906 2623.238281 3515.039062 2664.179688 3509.871094 2702.148438 C 3508 2715.828125 3499.019531 2720.648438 3488.71875 2728.460938 L 3487.5 2729.070312 C 3467.71875 2739.238281 3448.878906 2740.621094 3427 2742.820312 L 3333.589844 2748.179688 L 3333.929688 2364.46875 "/>
<path fill-rule="nonzero" fill="rgb(92.99469%, 11.634827%, 14.009094%)" fill-opacity="1" d="M 2844.019531 2287.820312 C 2854.160156 2300.660156 2861.171875 2317.058594 2868.578125 2331.609375 C 2888.789062 2371.308594 2907.300781 2412.109375 2923.199219 2453.738281 L 2943.78125 2511.589844 C 2901.910156 2553.621094 2838.851562 2584.851562 2785.628906 2609.789062 C 2763.070312 2620.359375 2736.859375 2634.789062 2712.578125 2640.121094 C 2708.761719 2640.960938 2701.570312 2643.121094 2697.800781 2642.75 C 2693.980469 2642.378906 2683.371094 2633.660156 2679.589844 2631.480469 C 2673.378906 2627.898438 2666.460938 2625.578125 2659.738281 2623.148438 C 2653.058594 2622.410156 2646.179688 2621.28125 2639.480469 2622.429688 C 2621.410156 2625.53125 2599.171875 2635.199219 2581 2631.949219 C 2571.070312 2620.71875 2566.511719 2596.230469 2561.25 2581.761719 C 2557.71875 2572.039062 2552.578125 2562.660156 2549.539062 2552.859375 C 2665.109375 2483.699219 2767.859375 2400.359375 2844.019531 2287.820312 "/>
<path fill-rule="nonzero" fill="rgb(100%, 100%, 100%)" fill-opacity="1" d="M 2647.441406 1700.800781 C 2655.609375 1698.078125 2673.421875 1699.949219 2682.171875 1701.019531 L 2686 1701.519531 C 2709.050781 1704.28125 2728.449219 1713.140625 2749.179688 1723.171875 L 2684 1768.121094 C 2653.738281 1791.019531 2624.628906 1815.53125 2590.640625 1832.988281 C 2544.539062 1856.671875 2490.738281 1867.210938 2439.121094 1863.058594 C 2427.378906 1862.121094 2415.441406 1860.769531 2404 1857.878906 C 2397.800781 1856.308594 2381.871094 1849.300781 2376.410156 1849.878906 C 2369.699219 1850.578125 2359.898438 1857.160156 2353.300781 1859.878906 C 2267.441406 1895.300781 2170.691406 1903.800781 2080.441406 1880.691406 C 2053.050781 1873.679688 2028.578125 1863.441406 2002.558594 1852.609375 L 1914.148438 1810.390625 C 1945.378906 1780.671875 1979.351562 1757.191406 2023.429688 1752.5 C 2071.878906 1747.328125 2125.621094 1763.140625 2173.441406 1770.28125 C 2189.199219 1772.628906 2207.660156 1772.410156 2222.738281 1777.179688 C 2234.011719 1780.761719 2240.851562 1788.058594 2249.941406 1795 C 2295.640625 1829.878906 2364.570312 1829.269531 2411.101562 1796.519531 C 2432.441406 1781.5 2451.371094 1757.5 2474.421875 1745.601562 C 2488.25 1738.46875 2504.699219 1733.898438 2519.480469 1729.03125 C 2561.761719 1715.078125 2603.199219 1705.980469 2647.441406 1700.800781 "/>
<path fill-rule="nonzero" fill="rgb(92.99469%, 11.634827%, 14.009094%)" fill-opacity="1" d="M 2965.121094 2703.058594 C 2988.320312 2767.941406 2995.660156 2839.5 3011.121094 2906.460938 C 2997.648438 2918.019531 2981.648438 2926.519531 2966.558594 2935.800781 C 2873.238281 2993.171875 2771.851562 3031.058594 2666.339844 3059.230469 L 2629.75 3067.511719 L 2627.691406 2880.339844 C 2654.308594 2872.679688 2694.929688 2866.960938 2715.820312 2849.300781 C 2722.539062 2843.621094 2727.039062 2838.960938 2727.621094 2829.871094 L 2727.980469 2825 C 2730.519531 2818.429688 2755.960938 2812.511719 2762.640625 2810.320312 C 2833.960938 2787 2904.28125 2746.828125 2965.121094 2703.058594 "/>
<path fill-rule="nonzero" fill="rgb(92.99469%, 11.634827%, 14.009094%)" fill-opacity="1" d="M 690.234375 1488.390625 C 728.710938 1486.210938 767.304688 1489.429688 805.71875 1491.179688 L 966.890625 1500.101562 L 946.167969 1730 C 945.175781 1738.519531 941.023438 1744.441406 936.589844 1751.511719 C 902.78125 1729.640625 877.878906 1689.261719 849.65625 1660.511719 C 838.996094 1649.648438 828.867188 1638.921875 814.15625 1633.769531 C 796.402344 1627.550781 784.066406 1629.988281 767.695312 1638.320312 C 722.445312 1661.328125 694.375 1708.730469 679.671875 1755.589844 L 672.164062 1783 C 669.703125 1800.378906 676.460938 1816.738281 686.808594 1830.441406 C 704.066406 1853.289062 741.21875 1875.808594 768.832031 1882.929688 C 783.042969 1886.601562 799.039062 1887.421875 813.675781 1889.378906 L 673.925781 1925.378906 C 652.546875 1931.339844 632.164062 1936.261719 611.382812 1944.308594 C 612.484375 1835.511719 626.074219 1725.871094 634.410156 1617.339844 L 640.382812 1533.230469 C 640.996094 1527.191406 640.988281 1515.261719 643.695312 1509.921875 C 649.753906 1497.988281 678.21875 1491.019531 690.234375 1488.390625 "/>
<path fill-rule="nonzero" fill="rgb(92.99469%, 11.634827%, 14.009094%)" fill-opacity="1" d="M 987.964844 2310.378906 L 1043.199219 2310.339844 C 1053.519531 2310.261719 1065.390625 2308.601562 1075.050781 2312.480469 L 1077.5 2321.640625 C 1079.78125 2342.78125 1082.25 2362.449219 1091.890625 2381.699219 C 1109.121094 2416.078125 1140.441406 2442.878906 1176.53125 2454.859375 C 1165.398438 2513.921875 1165.210938 2575.679688 1161.488281 2635.570312 L 1146.570312 2873.910156 L 958.457031 2873.921875 L 987.964844 2310.378906 "/>
<path fill-rule="nonzero" fill="rgb(92.99469%, 11.634827%, 14.009094%)" fill-opacity="1" d="M 1624.558594 2805.800781 L 1644.039062 2823.171875 C 1678.398438 2852.21875 1723.921875 2870.378906 1766.378906 2883.75 C 1858.101562 2912.621094 1951.851562 2922.058594 2047.421875 2926.488281 C 2127.5 2930.199219 2208.210938 2930.179688 2288.289062 2925.378906 L 2450.929688 2909.351562 C 2466.410156 2971.128906 2468.410156 3036.109375 2467.640625 3099.488281 L 2425.738281 3102.519531 L 2322.378906 3111.140625 C 2139.5 3119.53125 1943.441406 3104.609375 1769.140625 3046.460938 C 1738.171875 3036.128906 1707.078125 3025.660156 1677.890625 3010.898438 C 1640.960938 2992.21875 1604.769531 2967.191406 1574.210938 2939.320312 C 1586.140625 2893.109375 1604.660156 2849.070312 1624.558594 2805.800781 "/>
<path fill-rule="nonzero" fill="rgb(92.99469%, 11.634827%, 14.009094%)" fill-opacity="1" d="M 552.011719 2295.378906 L 682.351562 2304.058594 L 789.09375 2309.03125 C 805.34375 2310.199219 821.265625 2309.929688 836.785156 2315.429688 L 814.902344 2873.058594 L 677.410156 2872.148438 L 613.3125 2873.429688 C 597.597656 2873.800781 580.183594 2875.53125 565.125 2870.351562 C 552.992188 2866.179688 540.011719 2856.210938 534.640625 2844.410156 L 533.625 2842 C 529.453125 2832.328125 529.667969 2821.828125 529.523438 2811.449219 C 529.050781 2777.398438 532.066406 2743.378906 533.683594 2709.398438 L 540.105469 2558.859375 L 552.011719 2295.378906 "/>
<path fill-rule="nonzero" fill="rgb(100%, 100%, 100%)" fill-opacity="1" d="M 3042.261719 2927.089844 C 3051.988281 2958.71875 3062.539062 2991.679688 3064.429688 3024.878906 C 3065.269531 3039.558594 3060.191406 3055.339844 3050.179688 3066.269531 C 2998.800781 3122.398438 2916.449219 3153.21875 2846.210938 3177.5 C 2775.371094 3201.988281 2704.699219 3225.160156 2631.308594 3241 C 2510.71875 3267.03125 2385.550781 3277.140625 2262.480469 3282.800781 C 2121.578125 3289.28125 1979.441406 3279.28125 1842.101562 3246.53125 C 1790.609375 3234.25 1741.609375 3220.628906 1692.578125 3200.488281 C 1643.609375 3180.378906 1598.320312 3158.25 1558.890625 3122.269531 L 1548.128906 3109 C 1541.691406 3098.671875 1541.519531 3088.128906 1541.679688 3076.410156 C 1542.171875 3042.21875 1551.988281 3009.070312 1560.449219 2976.210938 C 1584.160156 2994.890625 1608.25 3012.800781 1634.601562 3027.660156 C 1670.609375 3047.960938 1708.640625 3062.640625 1747.558594 3076.140625 C 1843.058594 3109.261719 1941.289062 3127.058594 2041.53125 3137.851562 C 2164.980469 3151.140625 2289.300781 3148.328125 2412.78125 3136.808594 L 2535 3124 C 2621.070312 3111.160156 2707.011719 3089.148438 2789 3060.101562 C 2878.800781 3028.300781 2967.699219 2987.121094 3042.261719 2927.089844 "/>
<path fill-rule="nonzero" fill="rgb(100%, 100%, 100%)" fill-opacity="1" d="M 2356.921875 994.941406 C 2405.921875 993.558594 2459 991.25 2507 1001.738281 C 2520.78125 1004.761719 2535.898438 1007.800781 2547.691406 1016 C 2558.578125 1023.589844 2568.269531 1037.261719 2575.449219 1048.378906 C 2600.410156 1087.050781 2613.929688 1131.539062 2621.28125 1176.660156 C 2602.039062 1179.421875 2581.929688 1178.378906 2562.5 1178.839844 C 2513.078125 1180.011719 2463.128906 1179.101562 2413.878906 1183.390625 L 2228.53125 1202.648438 L 2046.589844 1234.871094 C 1980.488281 1247.601562 1913.21875 1261.25 1848.378906 1279.28125 L 1730.679688 1316.820312 C 1689.109375 1330.769531 1646.761719 1344.300781 1606.621094 1361.941406 L 1490.449219 1414.828125 C 1475.820312 1421.671875 1460.320312 1431.808594 1445.050781 1436.539062 C 1425.269531 1402.148438 1416.550781 1363.550781 1413.46875 1324.21875 C 1411.890625 1304.089844 1408.601562 1260.5 1423.640625 1245 C 1429.929688 1238.511719 1440.179688 1234.378906 1448 1230 L 1514.601562 1193.21875 C 1648.800781 1122.601562 1793.101562 1078.03125 1941 1047.160156 C 2078.988281 1018.359375 2216.179688 1001.558594 2356.921875 994.941406 "/>
<path fill-rule="nonzero" fill="rgb(92.99469%, 11.634827%, 14.009094%)" fill-opacity="1" d="M 1788.960938 2295.558594 L 1873.328125 2354.589844 C 1958.089844 2410.199219 2048.628906 2458.488281 2144.570312 2491.789062 C 2196.359375 2509.761719 2248.679688 2526.121094 2302.179688 2538.199219 L 2371.480469 2551.390625 C 2377.210938 2552.519531 2392.089844 2553.941406 2396.261719 2558.160156 C 2398.441406 2560.371094 2401.121094 2568.378906 2402.421875 2571.429688 C 2412.121094 2594.058594 2419.179688 2619.238281 2424.71875 2643.210938 L 2428.800781 2670.039062 L 2425.808594 2670.929688 C 2404.21875 2677.480469 2392.511719 2689.550781 2381.898438 2708.890625 L 2382.820312 2741.339844 C 2307.339844 2753.789062 2230.28125 2757.730469 2153.859375 2757.789062 C 2049.460938 2757.871094 1946.75 2750.828125 1845.949219 2722.359375 C 1813.601562 2713.21875 1785.578125 2696.53125 1754.089844 2686.109375 L 1756.191406 2684.28125 C 1771.921875 2670.371094 1783.96875 2651.21875 1796.519531 2634.460938 L 1858.089844 2548.800781 C 1846.160156 2558.96875 1833.941406 2570.921875 1821 2579.628906 C 1785.859375 2603.269531 1745.25 2620.601562 1705.390625 2634.539062 C 1692.371094 2639.101562 1679.210938 2644.820312 1666 2648.640625 C 1611.300781 2664.480469 1546.75 2672.109375 1490.050781 2667.5 C 1443.589844 2663.71875 1399.621094 2656 1355.898438 2639.410156 C 1418.871094 2583.519531 1450.378906 2501.859375 1471.820312 2422.378906 L 1491.019531 2343.039062 C 1499.21875 2345.300781 1506.679688 2345.859375 1515.101562 2346.058594 C 1587.480469 2347.75 1662.671875 2347.179688 1732.261719 2324.921875 C 1752.820312 2318.339844 1773.148438 2310.710938 1788.960938 2295.558594 "/>
<path fill-rule="nonzero" fill="rgb(98.182678%, 74.12262%, 34.962463%)" fill-opacity="1" d="M 1769.140625 1727.539062 C 1729.898438 1714.609375 1687.71875 1692.199219 1653.359375 1669.261719 C 1640.328125 1628.179688 1631.628906 1579.171875 1627.398438 1536.300781 C 1623.140625 1493.171875 1622.109375 1448.71875 1614.199219 1406.089844 L 1755.621094 1351.738281 C 1756.519531 1357.101562 1750.121094 1370.941406 1748.351562 1376.648438 C 1742.699219 1394.949219 1740.519531 1413.769531 1750.359375 1431.101562 C 1755.71875 1440.539062 1763.589844 1447.871094 1774.28125 1450.488281 C 1780.808594 1452.089844 1788.171875 1451.441406 1794.351562 1448.761719 C 1803.570312 1444.769531 1812.640625 1435.78125 1820.519531 1429.550781 C 1836.21875 1417.148438 1852.53125 1404.589844 1869.339844 1393.769531 C 1903.921875 1371.511719 1950.160156 1349.390625 1992.378906 1352.289062 C 2008.328125 1353.390625 2023.21875 1358.320312 2038.75 1361.539062 C 2048.398438 1363.550781 2057.589844 1364.160156 2066.078125 1358.199219 C 2080.191406 1348.300781 2087.238281 1331.589844 2089.390625 1314.960938 C 2091.25 1300.558594 2088.289062 1289.980469 2079.46875 1278.371094 L 2078.398438 1277 C 2086.480469 1267.121094 2121.128906 1266.210938 2135.03125 1263.878906 L 2328.558594 1233.238281 C 2328.351562 1252.949219 2322.78125 1281.429688 2332.359375 1299 C 2337.109375 1307.710938 2344.398438 1318.148438 2354.859375 1320.210938 C 2364.941406 1322.199219 2377.359375 1318.578125 2387.359375 1316.808594 C 2404.691406 1313.75 2422.140625 1310.570312 2439.710938 1309.238281 C 2501.539062 1304.558594 2554.039062 1328.320312 2611.421875 1346.75 C 2617.398438 1342.761719 2624.441406 1335.261719 2627.359375 1328.640625 C 2633.949219 1313.71875 2622.089844 1281.761719 2616.898438 1266.628906 C 2621.628906 1262.789062 2623.398438 1257.351562 2625.800781 1251.921875 C 2646.101562 1297.121094 2659.449219 1343.878906 2673.921875 1391.140625 L 2714.199219 1521.789062 C 2721.410156 1546.238281 2746.191406 1572.5 2761.359375 1592.910156 C 2755.421875 1595.171875 2749.269531 1597.230469 2743.589844 1600.089844 L 2733.320312 1609.359375 C 2719.351562 1621.859375 2705.378906 1634.449219 2690.460938 1645.808594 C 2688.050781 1647.640625 2674.859375 1656.058594 2674.039062 1658.089844 C 2673.558594 1659.300781 2673.78125 1660.699219 2673.730469 1662 L 2673.828125 1663.019531 L 2556.300781 1684.5 L 2478.050781 1702.191406 C 2474.929688 1690.320312 2472.441406 1676.851562 2467.25 1665.71875 C 2457.179688 1644.121094 2435.710938 1627.460938 2415.589844 1615.621094 C 2379.628906 1594.460938 2339.011719 1586.898438 2298.398438 1597.871094 C 2265.621094 1606.730469 2238.539062 1629.101562 2221.78125 1658.320312 C 2207.671875 1682.929688 2204.71875 1706.71875 2208.371094 1734.699219 C 2163.339844 1732.800781 2118.558594 1724.089844 2073.511719 1720.660156 C 2057.859375 1719.46875 2041.320312 1717.210938 2025.789062 1719.910156 L 2022.949219 1720.398438 L 2021.261719 1720.761719 C 2015.269531 1706.460938 2004.828125 1705.679688 1992.621094 1697.761719 C 1986.308594 1693.679688 1981.101562 1687.890625 1975.949219 1682.46875 L 1960.308594 1677.660156 L 1956.449219 1678.300781 C 1942.601562 1680.351562 1927.339844 1678.789062 1913.238281 1679.339844 C 1880.71875 1680.609375 1852.558594 1686.078125 1821.269531 1695.128906 C 1812.800781 1697.578125 1799.769531 1700.019531 1792.320312 1704.480469 C 1784.230469 1709.328125 1778.589844 1721.609375 1769.140625 1727.539062 "/>
<path fill-rule="nonzero" fill="rgb(92.99469%, 11.634827%, 14.009094%)" fill-opacity="1" d="M 2563.859375 1588.730469 C 2622.75 1576.960938 2685.480469 1591.058594 2743.589844 1600.089844 L 2733.320312 1609.359375 C 2719.351562 1621.859375 2705.378906 1634.449219 2690.460938 1645.808594 C 2688.050781 1647.640625 2674.859375 1656.058594 2674.039062 1658.089844 C 2673.558594 1659.300781 2673.78125 1660.699219 2673.730469 1662 L 2673.828125 1663.019531 L 2556.300781 1684.5 C 2552.5 1678.589844 2549.011719 1673.28125 2544 1668.339844 L 2536.488281 1669 C 2524.601562 1662.859375 2511.308594 1630.558594 2506.488281 1617.761719 C 2532.511719 1615.039062 2545.121094 1605.601562 2563.859375 1588.730469 "/>
<path fill-rule="nonzero" fill="rgb(6.266785%, 5.734253%, 5.047607%)" fill-opacity="1" d="M 2506.488281 1617.761719 C 2496.261719 1615.011719 2485.550781 1612.238281 2476.570312 1606.429688 C 2469.871094 1602.089844 2465.359375 1596.03125 2460.039062 1590.261719 C 2441.050781 1569.691406 2428.96875 1552.261719 2422.898438 1524.488281 C 2417.160156 1498.28125 2418.769531 1462.679688 2434.421875 1440.101562 C 2446.730469 1422.339844 2463.359375 1409.691406 2485.058594 1406.238281 C 2508.101562 1402.589844 2526.039062 1408.109375 2544.71875 1422.140625 C 2568.179688 1439.761719 2582.421875 1474.710938 2585.539062 1503.171875 C 2589.160156 1536.148438 2584.648438 1562.480469 2563.859375 1588.730469 C 2545.121094 1605.601562 2532.511719 1615.039062 2506.488281 1617.761719 "/>
<path fill-rule="nonzero" fill="rgb(6.266785%, 5.734253%, 5.047607%)" fill-opacity="1" d="M 1960.308594 1677.660156 L 1945.660156 1670.578125 C 1919.960938 1655.679688 1902.441406 1625.160156 1895.070312 1596.980469 C 1886.820312 1565.460938 1891.601562 1529.308594 1908.871094 1501.660156 C 1919.898438 1484 1936.480469 1474.949219 1956.578125 1470.570312 C 1977.5 1466 2002.039062 1471.460938 2019.78125 1483.351562 C 2043.71875 1499.371094 2056.761719 1522.789062 2064.238281 1550 L 2065.269531 1553.609375 C 2072.859375 1582.050781 2068.769531 1616.648438 2053.699219 1641.839844 C 2043.421875 1659.03125 2030.519531 1672.148438 2011 1678.261719 L 2007.878906 1679.261719 C 1997.378906 1682.46875 1986.820312 1682.371094 1975.949219 1682.46875 L 1960.308594 1677.660156 "/>
<path fill-rule="nonzero" fill="rgb(92.99469%, 11.634827%, 14.009094%)" fill-opacity="1" d="M 1026.128906 624.449219 C 1044.679688 619.96875 1062.980469 605.21875 1079.640625 595.839844 C 1145.78125 558.601562 1207.359375 517.929688 1279 491.179688 C 1289.71875 487.179688 1300.019531 481.320312 1311.121094 478.460938 C 1332.910156 472.839844 1360.621094 472.039062 1383.089844 472.398438 L 1477.390625 477.191406 C 1488.140625 477.410156 1501.121094 479.539062 1510.800781 474.328125 C 1654.980469 496.980469 1793.859375 548.679688 1926.429688 608.238281 C 1981.558594 633.011719 2037.738281 658.859375 2090.441406 688.460938 C 2104.089844 696.121094 2116.71875 705.578125 2130.121094 713.691406 L 2314.5 837.191406 L 2399.199219 905.550781 C 2415.5 920.058594 2430.351562 936.601562 2447.578125 949.96875 C 2340.738281 952.410156 2231.71875 957.921875 2125.871094 973.078125 L 1997 996.230469 C 1874.039062 1018.53125 1756.160156 1046.390625 1639.460938 1091.859375 C 1566.828125 1120.160156 1497.960938 1156.058594 1428.621094 1191.289062 C 1423.710938 1185.960938 1423.171875 1141.078125 1422.550781 1131.039062 L 1408.601562 953.988281 L 1393.121094 829.160156 C 1386.308594 786.769531 1378.011719 744.980469 1359.25 705.921875 C 1344.390625 674.980469 1317.71875 642.28125 1282 636.019531 L 1278.75 638.339844 C 1282.070312 645.339844 1284.679688 646.578125 1290.859375 651 L 1289.921875 653.339844 C 1263.378906 657.761719 1237.171875 661.640625 1211.171875 668.71875 C 1150.621094 685.199219 1090.320312 712.359375 1035.519531 742.761719 C 1029.179688 708.148438 1011.261719 679.910156 991.003906 651.75 C 996.320312 644.300781 1008.011719 638.558594 1015.320312 632.78125 C 1017.96875 630.691406 1023.179688 625.359375 1026.128906 624.449219 "/>
<path fill-rule="nonzero" fill="rgb(100%, 100%, 100%)" fill-opacity="1" d="M 2807.421875 1644.359375 C 2825.660156 1660.140625 2841.679688 1685.28125 2853.960938 1705.75 C 2913.820312 1805.558594 2927.558594 1929.160156 2899.140625 2041.421875 C 2850.519531 2233.449219 2720.890625 2394.160156 2551.539062 2494.878906 C 2537.871094 2503.011719 2520.601562 2514.78125 2504.808594 2517.839844 C 2489.878906 2520.738281 2468.910156 2516.441406 2453.480469 2514.421875 C 2395.648438 2506.878906 2337.828125 2496.199219 2281.300781 2481.878906 C 2118.03125 2440.5 1967.53125 2370.710938 1833.039062 2269 C 1762.691406 2215.800781 1698.53125 2154.761719 1653.011719 2078.398438 C 1612.828125 2000.558594 1598.871094 1913.789062 1586.039062 1828.039062 C 1577.261719 1769.320312 1568.980469 1709.949219 1572.328125 1650.449219 C 1635.75 1710.199219 1708.898438 1755.058594 1790.589844 1785.710938 C 1818.339844 1796.121094 1848.820312 1802.96875 1875.710938 1814.949219 C 1899.738281 1825.660156 1922.148438 1845.699219 1945.230469 1859.058594 L 2000.421875 1889.371094 C 2011.71875 1895.039062 2023.160156 1899.46875 2033.808594 1906.441406 C 2049.199219 1916.511719 2061.519531 1935.480469 2073.78125 1949.308594 C 2087.960938 1965.300781 2103.210938 1980.699219 2119.621094 1994.410156 C 2185.441406 2049.359375 2269.648438 2093.679688 2357.699219 2085.480469 C 2439.699219 2077.839844 2486.039062 2004.050781 2515.96875 1935.539062 L 2526.921875 1909.878906 C 2527.320312 1908.839844 2529.300781 1902.339844 2530.03125 1901.679688 C 2532.738281 1899.238281 2542.910156 1896.421875 2546.550781 1895 C 2561.058594 1889.371094 2575.839844 1884.421875 2589.550781 1876.980469 C 2617.429688 1861.839844 2643.910156 1845.140625 2668.53125 1825.03125 C 2688.460938 1808.738281 2706.058594 1789.859375 2725 1772.519531 C 2742.269531 1756.699219 2761.480469 1742.230469 2776.578125 1724.269531 C 2762.589844 1715.960938 2751.371094 1709.570312 2741.210938 1696.320312 L 2807.421875 1644.359375 "/>
</svg>
